<?xml version="1.0" encoding="utf-8"?>
<!-- Generator: Adobe Illustrator 21.0.2, SVG Export Plug-In . SVG Version: 6.00 Build 0)  -->
<svg version="1.1" id="Layer_1" xmlns="http://www.w3.org/2000/svg" xmlns:xlink="http://www.w3.org/1999/xlink" x="0px" y="0px"
	 viewBox="0 0 379 370" style="enable-background:new 0 0 379 370;" xml:space="preserve">
<g>
	<path d="M356.8,286.4c0.2,0.1,0.3,0.2,0.4,0.2c10.4,0.9,10.5,1,10.5,11.8c0,5.7,0,11.5,0,17.2c0,4.9-2.2,7-7.1,7.1
		c-3.5,0-7,0-10.9,0c0,1.6,0,2.9,0,4.3c0,10.2,0,20.5,0,30.7c0,4.7-2.2,6.9-6.9,7c-0.9,0-1.7,0-2.6,0c-101.6,0-203.2,0-304.8,0
		c-8.4,0-9.7-1.3-9.7-9.8c0-10.6,0-21.2,0-32.2c-3.9,0-7.5,0.1-11.1,0c-4.7-0.1-6.9-2.3-6.9-7c-0.1-6.9,0.1-13.8-0.1-20.6
		c-0.1-4.4,1.1-7.6,6-8.7c-5-6.7-6.2-14.2-6-22.1c0.4-11.9-0.6-23.8,0.9-35.6c2.4-19.9,13.7-34,32.1-41.9
		c9.8-4.2,20.1-7.6,30.2-11.2c2.2-0.8,3.3-1.9,2.9-4.3c0-0.2,0-0.5,0-0.7c0.8-4.7-0.9-7.9-4.9-11c-8.5-6.6-14-15.6-16.9-25.9
		c-0.6-2.1-1.5-3.2-3.8-3.7c-9.4-2-16-10-16.4-19.4c-0.4-9.6,5.7-18.2,15-20.8c2.5-0.7,3-1.7,3-4.1c-0.1-6.9-0.1-13.7,0-20.6
		C49.9,48,62.8,34.9,79.9,34.8c23.5-0.1,47,0,70.5,0c5.2,0,7.4,2.1,7.4,7.2c0,25.7,0.4,51.5-0.1,77.2c-0.5,23-11.9,39.4-32.8,49.1
		c-1.7,0.8-3.2,1.2-3.2,3.8c0,2.7,1.5,3.3,3.3,4.1c10.4,4.6,20.7,9.3,31.1,13.8c12.4,5.3,20.8,14.3,25.3,27
		c5,14.2,10.3,28.4,15.4,42.6c0.9,2.4,2,3.2,4.6,3.1c7-0.2,14-0.1,21.3-0.1c1.4-8.2,2.8-16.3,4.1-24.4c2.2-13.3,4.4-26.6,6.7-39.9
		c2.1-11.6,11.7-19.7,23.5-19.7c32-0.1,64-0.1,96,0c12.3,0,20.3,9.9,18.2,22.1C366.4,229.4,361.6,257.9,356.8,286.4z M37.8,226.9
		c4.2,0,7.9,0,12,0c0,10,0,19.8,0,29.8c6.6,0,12.9,0,19.1,0c6.3,0,12.6,0,19,0c-0.7-6-1.4-11.4-2.1-17.2c3.9-0.5,7.7-1,11.8-1.5
		c0.8,6.6,1.5,12.9,2.5,19.2c0.2,1.5,0.6,3.5,1.7,4.2c8.9,6,13.4,14.5,14.1,25c8,0,15.8,0,23.8,0c0-1.8,0-3.3,0-4.8c0-16,0-32,0-48
		c0-4.8,3.4-8.1,7.2-6.7c1.9,0.7,4,2.7,4.8,4.7c4,9.4,7.6,19,11.5,28.4c0.4,1,1.4,2.5,2.2,2.5c6.4,0.2,12.8,0.1,19.4,0.1
		c-0.1-0.8,0-1.2-0.1-1.6c-5.2-14.3-10.3-28.6-15.7-42.9c-2.9-7.6-8.3-12.9-15.7-16.3c-5.9-2.7-11.8-5.3-17.8-7.9
		c-5-2.2-10-4.4-15.1-6.7c-4.7,9.7-12.1,15.4-22.8,15.3c-10.9-0.1-18.1-6.1-22.5-15.8c-10.1,3.7-20.1,6.9-29.7,11
		c-14,6-23.2,16.7-24.7,31.9c-1.4,13.6-1,27.4-0.6,41.2c0.3,8.8,8.3,15.5,17.1,15.8c2.6,0.1,5.2,0,7.9,0c9.5,0,18.9,0,28.5,0
		c0-6.2,0-12,0-18c-1.6,0-2.9,0-4.3,0c-8.2,0-16.5,0-24.7,0c-4,0-6.6-2.1-6.6-5.6C37.7,251.1,37.8,239.2,37.8,226.9z M337.6,323
		c-100.1,0-199.8,0-299.5,0c0,10,0,19.8,0,29.6c100,0,199.7,0,299.5,0C337.6,342.7,337.6,333,337.6,323z M254.8,286.8
		c2,0,3.3,0,4.7,0c25.7,0,51.5,0,77.2,0c6.8,0,8.2-1.3,9.3-8c4.3-26.2,8.7-52.5,13.1-78.7c1.1-6.7-0.9-9.3-7.8-9.3
		c-25.6,0-51.2,0-76.9,0c-1.1,0-2.2,0-3.6,0C265.5,222.7,260.2,254.4,254.8,286.8z M79.7,75.8c1,14.4-3.9,23.3-17.2,25.1
		c0,8.5-0.9,17,0.2,25.2c2.5,19.6,20.8,34.6,41.1,34.6c20.3,0,38.8-14.9,41.1-34.5c1.4-12.3,0.7-24.9,0.9-37.4c0.1-3.5,0-6.9,0-10.8
		C123.7,82.8,102,86.4,79.7,75.8z M355.6,299c-112.1,0-223.8,0-335.5,0c0,4.1,0,7.8,0,11.6c112,0,223.7,0,335.5,0
		C355.6,306.7,355.6,303,355.6,299z M145.5,46.8c-22.7,0-45.2-0.2-67.6,0.1c-8.3,0.1-15.5,7.4-16,15.7c-0.5,8.6-0.1,17.2-0.1,26
		c3.9-0.4,5.7-2.6,5.9-6.1c0.1-3.5,0-7,0-10.5c0.1-5.1,2.2-7.6,7.3-7.1c6.3,0.6,12.5,2.1,18.7,3.2c5.2,0.9,10.6,2.8,15.7,2.5
		c12-0.7,24-2.4,36-3.8C145.5,59.7,145.5,53.5,145.5,46.8z M258.6,190.9c-8.2-0.3-12.5,3.7-13.8,11.8c-3.4,20.7-6.9,41.3-10.3,62
		c-1.2,7.2-2.3,14.4-3.5,21.7c4.2,0,7.8,0,11.7,0C248,254.6,253.3,222.9,258.6,190.9z M169.8,274.9c0,2.3-0.1,4.2,0,6
		c0.3,3.5,2.3,5.7,5.8,5.7c14.2,0.1,28.5,0.1,43,0.1c0.7-4,1.3-7.8,2-11.8C203.5,274.9,186.8,274.9,169.8,274.9z M85.8,170.5
		c0,2.8-0.2,6,0.1,9.2c0.4,5,3.2,8.5,8,10.3c4.5,1.7,8.6,0.6,12.1-2.6c4.5-4.1,4.2-9.4,3.6-14C101.4,172.4,93.8,171.5,85.8,170.5z
		 M103.5,286.6c0.3-9.6-7.7-17.7-17.4-17.6c0,5.9,0,11.8,0,17.6C92.1,286.6,97.8,286.6,103.5,286.6z M159.4,286.6
		c-2.2-7.3-4.4-14.1-6.5-20.9c-0.3,0.1-0.6,0.2-1,0.3c0,6.9,0,13.7,0,20.7C154.2,286.6,156.3,286.6,159.4,286.6z M49.4,118
		c0-5.7,0-11,0-16.6c-4,1.9-5.8,4.8-5.6,8.8C44,113.9,45.9,116.4,49.4,118z"/>
	<path d="M277.8,4.8c23.2,0,46.5,0,69.7,0c13,0,20.3,7.2,20.3,20.1c0,30.6,0,61.2,0,91.8c0,12.9-7.3,20.1-20.3,20.1
		c-19.1,0-38.2,0.1-57.3-0.1c-2.6,0-4.1,0.8-5.5,2.8c-4.3,6-8.8,11.8-13.2,17.7c-3.6,4.8-7.6,4.8-11.3,0c-4.5-6-8.9-12.1-13.6-17.9
		c-1-1.3-3.2-2.4-4.8-2.4c-11.5-0.2-23-0.1-34.5-0.1c-11.9,0-19.5-7.5-19.5-19.4c0-31.1,0-62.2,0-93.3c0-11.7,7.5-19.3,19.2-19.3
		C230.5,4.7,254.2,4.8,277.8,4.8z M265.8,144.7c4.1-5.4,8-10.3,11.5-15.4c2.3-3.3,5.1-4.6,9.1-4.6c20.5,0.2,41,0.1,61.5,0.1
		c5.9,0,7.9-2,7.9-7.9c0-30.7,0-61.5,0-92.2c0-5.9-2-7.9-7.9-7.9c-46.7,0-93.5,0-140.2,0c-5.9,0-7.9,2-7.9,7.8c0,30.7,0,61.5,0,92.2
		c0,5.9,2,7.9,7.8,7.9c12.9,0,25.7,0.1,38.6,0c3.2,0,5.5,1.1,7.3,3.6C257.4,133.7,261.4,138.9,265.8,144.7z"/>
	<path d="M325.7,238.6c0,10-8.1,18.1-18.1,18.1c-9.8,0-17.8-8.1-17.9-17.9c0-10,8.1-18.1,18.1-18.1
		C317.6,220.8,325.7,228.9,325.7,238.6z M313.7,238.8c0-3.2-2.6-5.9-5.9-6c-3.2-0.1-6,2.6-6.1,5.8c-0.1,3.4,2.7,6.2,6,6.2
		C311,244.7,313.7,242,313.7,238.8z"/>
	<path d="M97.6,101c0,3.9,0,7.5,0,11.5c-3.9,0-7.7,0-11.7,0c0-3.8,0-7.5,0-11.5C89.6,101,93.4,101,97.6,101z"/>
	<path d="M121.9,112.5c0-3.8,0-7.5,0-11.5c3.7,0,7.5,0,11.6,0c0,3.7,0,7.5,0,11.5C129.7,112.5,125.9,112.5,121.9,112.5z"/>
	<path d="M223.8,52.5c0-4,0-7.6,0-11.5c35.8,0,71.6,0,107.6,0c0,3.7,0,7.5,0,11.5C295.7,52.5,259.9,52.5,223.8,52.5z"/>
	<path d="M223.9,76.5c0-3.9,0-7.6,0-11.5c35.9,0,71.7,0,107.7,0c0,3.8,0,7.5,0,11.5C295.8,76.5,260.1,76.5,223.9,76.5z"/>
	<path d="M331.6,89c0,3.9,0,7.6,0,11.5c-35.9,0-71.7,0-107.7,0c0-3.9,0-7.6,0-11.5C259.7,89,295.5,89,331.6,89z"/>
</g>
</svg>
