<?xml version="1.0" encoding="utf-8"?>
<!-- Generator: Adobe Illustrator 21.0.2, SVG Export Plug-In . SVG Version: 6.00 Build 0)  -->
<svg version="1.1" id="Layer_1" xmlns="http://www.w3.org/2000/svg" xmlns:xlink="http://www.w3.org/1999/xlink" x="0px" y="0px"
	 viewBox="0 0 512 512" style="enable-background:new 0 0 512 512;" xml:space="preserve">
<g>
	<path d="M513,268c-0.2,0.4-0.6,0.8-0.7,1.3c-5.4,20.1-18.7,30.4-39.5,30.4c-48.5,0-97,0-145.5,0c-3.3,0-6.7,0-10,0
		c-23-0.3-38.9-16.1-39.1-39.1c-0.1-16.2,0-32.3,0-48.5c0-55.3,0-110.6,0-166c0-26.5,7-36.4,31.8-45.2c57.3,0,114.7,0,172,0
		c8.6,2.7,17.2,6,22.4,13.8c3.7,5.6,5.8,12.1,8.6,18.2C513,111.3,513,189.7,513,268z M481,150.4c0-36.3,0-72.6,0-108.9
		c0-7.1-1.3-8.4-8.5-8.4c-51.3,0-102.6,0-153.9,0c-6.9,0-8.3,1.5-8.4,8.6c0,72.5,0,144.9,0,217.4c0,7.3,1.5,8.8,8.8,8.8
		c51.1,0,102.3,0,153.4,0c7,0,8.5-1.5,8.5-8.4C481,223,481,186.7,481,150.4z"/>
	<path d="M1,246c0.8-2.4,1.4-4.8,2.3-7.1c5.3-14.6,18.7-24.5,35-24.5c53.3-0.2,106.6-0.3,160,0c22.2,0.1,37.5,16.7,37.5,39.5
		c0.1,42.5,0,85,0,127.5c0,28.7,0,57.3,0,86c0,27-6.8,36.8-31.8,45.7c-57,0-114,0-171,0c-11.8-2.8-21.6-8.6-27.4-19.6
		c-1.9-3.6-3.1-7.6-4.6-11.4C1,403.3,1,324.7,1,246z M33,363.6c0,36.1,0,72.3,0,108.4c0,7.8,1.1,9,8.9,9c51,0,101.9,0,152.9,0
		c7.6,0,8.9-1.3,8.9-9c0-72.1,0-144.3,0-216.4c0-8-1.3-9.3-9.2-9.3c-50.8,0-101.6,0-152.4,0c-7.9,0-9.1,1.2-9.1,9.4
		C33,291.6,33,327.6,33,363.6z"/>
	<path d="M204,1c6.2,3,13.1,5.2,18.5,9.2c9.3,7,13.2,17.4,13.2,28.9c0.1,31.5,0.2,63,0,94.5c-0.2,21.9-16,37.9-38,38
		c-52.8,0.2-105.6,0.2-158.4,0c-18.8-0.1-32.7-11.3-37.3-29.4c-0.2-0.8-0.6-1.5-0.9-2.3c0-36,0-72,0-108c0.6-1.7,1.3-3.3,1.8-5
		C6.2,16.8,12.7,9.3,22.4,4.7C25.5,3.3,28.8,2.2,32,1C89.3,1,146.7,1,204,1z M118.3,139.7c25.6,0,51.3,0,76.9,0c7,0,8.5-1.5,8.5-8.5
		c0-30,0-60,0-89.9c0-6.7-1.5-8.3-8.2-8.3c-51.5,0-102.9,0-154.4,0c-6.7,0-8.2,1.5-8.2,8.2c0,30,0,60,0,89.9c0,7.2,1.4,8.6,8.8,8.6
		C67.3,139.8,92.8,139.8,118.3,139.7z"/>
	<path d="M310,513c-3.6-1.3-7.3-2.2-10.7-4c-13.6-6.9-20.8-18.2-20.9-33.2c-0.3-32.2-0.4-64.3,0-96.5c0.3-21.6,16.6-36.9,38.4-37
		c38.3-0.2,76.6,0,115-0.1c13.7,0,27.3,0,41,0c20.8,0,34.1,10.3,39.5,30.4c0.1,0.5,0.5,0.9,0.7,1.3c0,35.7,0,71.3,0,107
		c-2.6,5.8-4.6,12.1-8,17.4c-5.5,8.5-14.5,12.3-24,14.6C424,513,367,513,310,513z M395.6,481c25.6,0,51.3,0,76.9,0
		c7.1,0,8.5-1.3,8.5-8.4c0-30,0-60,0-89.9c0-6.9-1.5-8.4-8.5-8.4c-51.1,0-102.3,0-153.4,0c-7.3,0-8.8,1.5-8.8,8.7
		c0,29.8,0,59.6,0,89.4c0,7.2,1.4,8.6,8.9,8.6C344.6,481,370.1,481,395.6,481z"/>
</g>
</svg>
