<?xml version="1.0" encoding="utf-8"?>
<!-- Generator: Adobe Illustrator 21.0.2, SVG Export Plug-In . SVG Version: 6.00 Build 0)  -->
<svg version="1.1" id="Layer_1" xmlns="http://www.w3.org/2000/svg" xmlns:xlink="http://www.w3.org/1999/xlink" x="0px" y="0px"
	 viewBox="0 0 384 342" style="enable-background:new 0 0 384 342;" xml:space="preserve">
<g>
	<path d="M0.7,273.3c0-79.8,0-159.5,0-239.3c0.2-0.3,0.3-0.6,0.4-1C6.6,14.2,17.1,6.3,36.6,6.3c103.9,0,207.7,0,311.6,0
		c20.4,0,30.4,7.5,36.3,27c0.1,0.2,0.2,0.5,0.3,0.7c0,79.8,0,159.5,0,239.3c-0.1,0.2-0.3,0.4-0.4,0.6c-4.8,18.4-15.9,26.9-34.8,26.9
		c-18.7,0-37.5,0-56.2,0c-1.4,0-2.9,0-4.6,0c0,1.8,0,3,0,4.2c0,8.9,0,17.7,0,26.6c0,3.2-1,5.6-4,6.9c-3.1,1.4-5.6,0.1-7.7-2.1
		c-0.6-0.6-1.2-1.2-1.9-1.9c-6-6.1-12-12.2-18.2-18.5c-1.4,1.3-2.3,2.1-3.1,3c-5.8,5.8-11.7,11.7-17.5,17.5c-2.2,2.2-4.7,3.4-7.7,2
		c-2.9-1.3-3.9-3.7-3.8-6.7c0.1-4.7,0-9.5,0-14.2c0-5.5,0-10.9,0-16.8c-1.9,0-3.4,0-4.8,0c-31.4,0-62.7,0-94.1,0
		c-30.5,0-61,0-91.4,0c-15.2,0-27.2-8.2-31.9-21.5C1.9,277.3,1.4,275.3,0.7,273.3z M224.8,288c0-2.2,0-3.7,0-5.2
		c0-24.2,0.2-48.5-0.1-72.7c-0.2-12.2,2-24.6-2.6-36.6c-1-2.6-1.9-4-4.7-4.4c-10.4-1.6-16.3-10.2-13.8-20.4c0.7-2.9,0.1-4.6-2.5-6.1
		c-9-5.4-11.1-15.7-4.8-24.1c1.8-2.4,1.7-4.2,0-6.6c-6.3-8.5-4.2-18.6,4.9-24.1c2.4-1.5,3.2-3,2.6-5.8c-2.6-10.7,3.1-19.1,14.1-20.8
		c2.5-0.4,3.7-1.6,4.1-4c1.9-11.2,9.8-16.7,20.7-14.2c2.7,0.6,4.4,0,5.9-2.5c5.5-9.1,15.7-11.2,24.1-4.9c2.4,1.8,4.2,1.9,6.7,0.1
		c8.5-6.3,18.7-4.3,24.1,4.7c1.6,2.6,3.3,3.2,6.2,2.5c10.2-2.5,19,3.4,20.4,13.7c0.4,2.8,1.5,4.1,4.4,4.5
		c10.7,1.5,16.4,10.1,13.9,20.6c-0.6,2.7-0.1,4.4,2.4,5.9c9.3,5.6,11.3,15.6,4.8,24.4c-1.7,2.3-1.6,4,0.1,6.3
		c6.4,8.7,4.4,18.7-4.9,24.3c-2.3,1.4-3,3-2.4,5.6c2.5,11.1-2.8,19-13.9,21c-1.3,0.2-3.3,1.1-3.6,2.1c-1.4,4.6-3.3,9.3-3.4,13.9
		c-0.3,26.5-0.2,53-0.2,79.5c0,1,0,2,0,3c0.2,3-0.8,5.5-3.7,6.8c-2.9,1.3-5.6,0.5-7.8-1.8c-6.7-6.8-13.5-13.6-20.6-20.7
		c-2.2,2.6-5.8,4.8-6,7.3c-0.7,9.4-0.3,18.9-0.3,28.7c1.7,0,2.9,0,4.1,0c19.1,0,38.2,0,57.4,0c14,0,21.7-7.7,21.7-21.9
		c0-75.1,0-150.2,0-225.3c0-14-7.7-21.7-21.9-21.7c-104.9,0-209.7,0-314.6,0c-14.4,0-22,7.6-22,21.9c0,75,0,150,0,225
		c0,14.4,7.6,22,21.9,22c61.6,0,123.2,0,184.8,0C221.6,288,223,288,224.8,288z M313.6,175.3c2.6-0.2,3.4-1.7,3.7-4
		c1.3-8.4,6-13.2,14.2-14.7c4.4-0.8,5-1.7,4-6c-1.8-7.6,1-14.3,7.6-18.4c3.9-2.4,4.1-3.4,1.6-7c-4.7-6.6-4.7-13.6,0-20.1
		c2.5-3.5,2.3-4.6-1.2-6.8c-7.1-4.4-9.7-10.7-7.8-18.9c0.9-3.8,0.1-5-3.7-5.6c-8.1-1.2-13.3-6.3-14.6-14.3c-0.7-4.2-1.6-4.8-5.7-3.9
		c-7.9,1.8-14.4-0.8-18.7-7.6c-2.4-3.8-3.4-4-7.1-1.3c-6.4,4.5-13.5,4.6-19.9,0c-3.7-2.7-4.8-2.5-7.1,1.2
		c-4.2,6.7-10.7,9.5-18.3,7.8c-4.7-1-5.3-0.7-6.2,4.1c-1.5,7.8-6.6,12.8-14.1,14c-4.3,0.7-5,1.7-4,6c1.8,7.6-1,14.2-7.6,18.3
		c-3.9,2.4-4.1,3.5-1.5,7c4.7,6.6,4.7,13.5,0,20.1c-2.5,3.6-2.3,4.6,1.6,7c6.6,4.1,9.3,10.7,7.5,18.4c-1,4.3-0.4,5.2,4.1,6
		c7.9,1.5,12.6,6.2,14.1,14c0.9,4.7,1.7,5.2,6.2,4.1c7.4-1.7,14,1,18,7.4c2.6,4.2,3.4,4.3,7.6,1.3c6-4.3,13.2-4.2,19.2,0
		c4.1,2.9,4.9,2.8,7.6-1.4c4-6.4,10.7-9.1,18.1-7.4C312.1,175,312.9,175.1,313.6,175.3z M238,188.3c0,42.8,0,85.4,0,128.8
		c4.6-4.7,8.6-8.9,12.7-12.9c4.7-4.7,7.6-4.7,12.3,0.1c4.1,4.1,8.1,8.3,12.8,13.2c0-15.9,0-30.5,0-45.7c-2.9,2.7-5.8,4.3-9.3,2.4
		c-3.7-2-3.2-5.5-3.2-8.9c0-21,0-42,0-62.9c0-1.3,0-2.6,0-3.9c-8.1-1-10.9-2.9-15.1-9.1c-0.8-1.2-2.7-2.1-4.2-2.2
		C242,187.1,240,187.9,238,188.3z M276.2,194.2c0,19,0,38.6,0,59.3c4.5-4.7,8.2-8.6,12.1-12.5c5.6-5.7,8-5.7,13.6-0.1
		c3.9,3.9,7.8,7.9,12.2,12.3c0-22.2,0-43.5,0-65c-1-0.1-2-0.1-2.7-0.4c-4.2-1.6-6.7-0.4-9,3.7c-2.7,4.7-7.5,7.3-13,6.7
		C284.9,197.6,280.7,195.6,276.2,194.2z"/>
	<path d="M39.1,153.5c0-20.6,0-41.2,0-61.9c0-20.5,13.6-34.1,34.1-34.1c36.9,0,73.7,0,110.6,0c1.4,0,2.8,0,4.1,0.4
		c3.2,0.8,4.9,3,4.8,6.3c-0.1,3.2-1.9,5.4-5.2,5.9c-1.6,0.3-3.2,0.2-4.9,0.2c-36.1,0-72.2,0-108.4,0c-14.9,0-22.4,7.4-22.4,22.3
		c0,41.1,0,82.2,0,123.4c0,10.1,5.3,17.6,14.3,20c2.4,0.6,4.9,0.7,7.4,0.7c38.6,0,77.2,0,115.9,0c1.7,0,3.5,0,5.2,0.5
		c3.2,0.9,4.6,3.3,4.3,6.6c-0.3,3.1-2.1,5-5.2,5.6c-1.1,0.2-2.2,0.2-3.4,0.2c-39.2,0-78.5,0-117.7,0c-16.3,0-28.8-9.3-32.5-24.1
		c-0.8-3.2-1.1-6.7-1.1-10C39,194.7,39.1,174.1,39.1,153.5z"/>
	<path d="M129.1,213.7c-9.2,6.5-15.6,5.3-28.5-5.5c-5.1,7.4-12.2,12.1-20.4,15.1c-5,1.9-9.9-1.6-8.8-6.4c0.5-2.1,2.6-4.1,4.4-5.4
		c2.5-1.8,5.5-2.9,8.1-4.5c5.3-3.3,7.8-8.2,8.1-14.4c0.2-4.1,2.1-6.6,5.5-6.9c3.6-0.4,5.9,1.5,7.1,4.8c2.1,5.6,5.6,10,10.7,13.1
		c3.6,2.3,5.1,1.6,5.7-2.6c0.5-3,2-5.1,5-5.8c3.2-0.6,5.8,0.6,7.1,3.6c1.4,3.2,4,4.6,7.1,5.5c10.6,2.8,21.3,5.5,32.4,5.3
		c4.3-0.1,7.2,2.8,7.1,6.5c-0.1,3.6-2.9,6.2-7,6.2C157.8,222.5,143.5,219.1,129.1,213.7z"/>
	<path d="M122.2,147.2c14,0,28,0,42,0c1.1,0,2.3-0.1,3.4,0c3.5,0.3,5.8,2.7,5.9,6.1c0.1,3.3-2.1,6-5.5,6.5c-1.1,0.2-2.2,0.1-3.4,0.1
		c-28.2,0-56.4,0-84.7,0c-0.9,0-1.8,0-2.6,0c-3.8-0.4-6.3-3.2-6.1-6.7c0.2-3.4,2.7-5.9,6.4-6c6.4-0.1,12.7,0,19.1,0
		C105.2,147.2,113.7,147.2,122.2,147.2z"/>
	<path d="M122.3,121.6c14.1,0,28.2,0,42.3,0c1.2,0,2.5-0.1,3.7,0.1c2.9,0.6,4.6,2.3,5,5.3c0.4,2.9-0.7,5.2-3.3,6.5
		c-1.2,0.6-2.6,0.8-4,0.8c-29.1,0-58.2,0-87.3,0c-0.5,0-1,0-1.5,0c-3.8-0.5-6.3-3.2-6.1-6.8c0.2-3.4,2.6-5.8,6.5-5.9
		c8.2-0.1,16.5,0,24.7,0C109,121.6,115.6,121.6,122.3,121.6z"/>
	<path d="M122.7,96c14.4,0,28.7,0,43.1,0c3.6,0,6.5,1,7.5,4.7c1,3.5-1,6.9-4.6,7.7c-1.3,0.3-2.7,0.3-4.1,0.3c-28.1,0-56.2,0-84.3,0
		c-1.4,0-2.8,0-4.1-0.3c-3.2-0.7-5.1-3.4-4.9-6.5c0.2-3.2,2.4-5.6,5.7-5.8c4.2-0.2,8.5-0.1,12.7-0.1C100.7,96,111.7,96,122.7,96z"/>
	<path d="M275.9,166.3c-28.4-0.1-51.1-23-51-51.4c0.1-28.4,23-51.1,51.4-51c28.3,0.1,51,23.1,50.8,51.5
		C326.9,143.7,304,166.4,275.9,166.3z M276,153.5c21.3,0,38.3-17.1,38.3-38.4c0-21.2-17.2-38.4-38.4-38.4
		c-21.2,0-38.3,17.2-38.3,38.4C237.6,136.5,254.7,153.5,276,153.5z"/>
</g>
</svg>
