<?xml version="1.0" encoding="utf-8"?>
<!-- Generator: Adobe Illustrator 21.0.2, SVG Export Plug-In . SVG Version: 6.00 Build 0)  -->
<svg version="1.1" id="Layer_1" xmlns="http://www.w3.org/2000/svg" xmlns:xlink="http://www.w3.org/1999/xlink" x="0px" y="0px"
	 viewBox="0 0 512 512" style="enable-background:new 0 0 512 512;" xml:space="preserve">
<g>
	<path d="M330.7,329.1c-1.7-15.4-13.9-30.1-29.7-33.8c-17.5-4.1-35.2-6.5-53.1-9.7c-5.9,13-11.7,25.6-17.6,38.2
		c-2.1,4.6-4.2,9.3-6.3,13.9c-3.5,7.6-7.9,8.6-14.5,3.4c-1.3-1-2.4-2-4.2-3.4c-2.8,6.6-6.6,12-5.6,19.9c4.8,38.7,9,77.6,13.5,116.4
		c0.8,6.8,1.7,13.7,2.4,20.4c0.6,5.5-2,9.3-6.5,9.7c-4.5,0.4-7.6-2.7-8.2-8.3c-5.2-45.2-10.4-90.6-15.8-135.8
		c-0.1-0.7-0.1-1.4-0.4-2.4c-3.8,0-7.6,0-12.1,0c-1.1,9.6-2.3,19.3-3.4,29c-4.2,36.8-8.5,73.4-12.7,110.2c-0.6,4.8-3.8,7.7-7.9,7.5
		c-4.5-0.3-7.3-4.2-6.6-9.6c2.5-22,5.1-44.1,7.6-66.1c3-24.9,6.2-50,8.5-74.9c0.4-5.1-3.1-10.4-5.2-16.3c-2.5,2.1-3.9,3.2-5.4,4.5
		c-5.8,4.5-10.3,3.5-13.5-3.2c-6.3-13.5-12.5-27.2-18.7-40.7c-1.7-3.8-3.5-7.6-5.6-12c-18,3.2-36.2,5.6-53.8,10
		c-18.3,4.6-30,21.8-30,41.3c-0.1,51.6,0,103.1,0,154.8c0,1.5,0,3.2,0,4.8c-0.3,4.5-2.7,7.2-7.2,7.6c-4.2,0.3-7.5-3-7.5-7.7
		c-0.1-8,0-16.2,0-24.2c0-43,0.8-85.9-0.3-128.9c-0.8-31.6,17.7-60.4,56.1-65.2c23.4-3,46.5-7.6,69.7-11.7c1.4-0.3,2.7-0.7,4.2-1.3
		c0-7,0.3-13.9-0.1-20.7c-0.1-1.7-2.1-3.8-3.8-4.9c-19.7-13.7-34.4-31-40.4-54.8c-1.4-5.2-2.1-10.7-3.1-16.5
		c-15.9-1.7-29.4-6.5-30.7-24.8c-1.7-22.5,1.3-27.6,17.6-34.2c0-10.3,0-20.6,0-31c0-28,16.1-46.8,43.7-51.6c2.5-0.4,5.2-1.8,6.9-3.7
		c9.2-10,20.4-15.4,33.9-15.5c15.8,0,31.7-0.1,47.5,0c35.5,0.3,64.1,28.5,64.7,64c0.3,12.7,0,25.4,0,37.9
		c14.6,5.6,17.7,10.3,17.7,25.8c0,2.7,0,5.4,0,7.9c-0.4,11.1-7.9,20.3-18.6,22.8c-3.8,1-7.6,1.5-11.8,2.4c-0.6,3.4-1,7-1.7,10.7
		c-5.1,26.2-20.1,45.6-42,60.3c-2.8,2-4.1,3.8-3.9,7.2c0.3,6.2,0.1,12.3,0.1,18.9c10.4,1.8,20.4,3.5,30.4,5.2c17,3,33.9,5.6,51,8.7
		c15.9,2.8,28.7,11.1,38.6,24.8c8-11.4,19.6-13.1,32.1-12.5c9,0.4,17.9,0,26.9,0.1c16.8,0.1,28.7,12.3,29,29c0,2.4,0,4.9,0,8.3
		c2.3,0,4.4,0,6.3,0c21.7,0,43.2,0,64.9,0c9,0,11.1,2.1,11.1,11.3c0,46.3,0,92.5,0,138.9c0,15.9-8.9,24.8-24.8,24.8
		c-69.3,0-138.7,0-208.1,0c-15.9,0-24.8-8.9-24.8-24.9c0-46.5,0-93,0-139.5c0-8.5,2.3-10.7,10.6-10.7c21.4,0,43,0,64.4,0
		C326.5,329.1,328.3,329.1,330.7,329.1z M130.3,86.8c0,3.9-0.3,7.2,0,10.4c0.6,5.5-1.4,9.3-6.2,12.3c-4.6,2.8-9.2,6.1-13.4,9.4
		c-1.5,1.3-2.8,3.5-2.8,5.5c-0.3,8.3-0.4,16.5,0,24.8c0.4,10.3,0.1,20.8,2.3,30.8c6.1,28.7,34.9,53.8,61.8,56.9
		c36.9,4.1,72.4-29.6,76.1-61.4c2-17.3,1.1-35.1,1.3-52.7c0-1.3-1.5-3-2.8-3.9c-4.9-3.7-10-7.3-15.1-10.7c-3.2-2.1-4.6-4.9-4.5-8.9
		s0-8,0-12.7C194.5,92.6,162.8,92.5,130.3,86.8z M264.2,404.2c0,2.3,0,3.8,0,5.4c0,23.1,0,46.1,0,69.2c0,8.5,2.3,10.7,10.6,10.7
		c69,0,138,0,207.1,0c8.3,0,10.6-2.3,10.6-10.6c0-23.1,0-46.1,0-69.2c0-1.7-0.1-3.4-0.3-5.2c-1.7,0.3-3,0.3-4.2,0.6
		c-28.9,5.1-57.8,10.3-86.8,15.2c-8.6,1.5-17.6,4.4-25.9,3.1c-26.8-3.7-53.4-9-80-13.7C285.1,407.9,274.9,406,264.2,404.2z
		 M264.4,388.9c1.4,0.4,2.4,0.8,3.4,1c30.3,5.4,60.6,10.7,90.9,15.9c7.9,1.4,16.2,3.5,23.8,2.4c25.1-3.5,49.9-8.5,74.8-12.8
		c11.6-2,23.1-4.1,34.7-6.2c0-15.2,0-29.9,0-44.8c-76.1,0-151.8,0-227.8,0C264.4,359.4,264.4,373.9,264.4,388.9z M262.3,111.2
		c0-14.5,0.3-27.5,0-40.4c-0.7-26.1-22-47.5-48-48.2c-16.8-0.4-33.4-0.3-50.1,0c-8.7,0.1-16.6,3.2-21.6,10.4
		c-4.2,6.1-9.4,8-16.2,8.7C110.3,43.6,98,53.3,96.2,68.3c-1.7,13.7-0.4,27.6-0.4,42.5c2.5-1.5,4.6-3.1,6.9-4.1
		c10.7-4.9,14.5-12.8,13.1-24.8c-1.1-9.4,2.7-11.7,12.1-10.4c13.9,1.8,27.9,4.6,41.8,4.5c20-0.3,39.9-2.5,59.9-4.5
		c9.3-1,12.3,1,12.3,10.6c0,0.1,0,0.4,0,0.6c-2.4,11.4,2.3,19,12.5,23.8C256.8,107.6,258.9,109.1,262.3,111.2z M178.6,294.8
		c7.7-8.5,14.8-16.2,22-24.1c0.7-0.8,1.4-2.1,1.4-3.2c0.1-6.2,0-12.3,0-18.9c-15.8,4.5-31,4.6-46.9,0c0,6.5,0,12.7,0,18.7
		c0,1,0.4,2.1,1.1,2.8C163.7,278.3,171,286.3,178.6,294.8z M409.5,329c0.3-0.7,0.6-1,0.6-1.4c0-1.7,0.1-3.5,0.1-5.2
		c-0.1-10.3-5.4-15.6-15.5-15.6c-11.3,0-22.5,0-33.7,0c-6.1,0-11,2.5-12.8,8.2c-1.4,4.2-1.3,9.2-1.8,14.1
		C367.9,329,388.6,329,409.5,329z M124.8,283.3c6.6,14.2,12.8,27.7,19.3,41.8c8.3-7,16.1-13.4,23.9-20c-7.3-8-14.4-15.8-21.6-23.5
		c-0.7-0.7-2.1-1.4-3.2-1.3C137.2,281.1,131.3,282.2,124.8,283.3z M232.7,283.2c-6.6-1.1-12.5-2.1-18.3-3c-0.8-0.1-2.3,0.1-2.8,0.7
		c-7.3,7.9-14.6,15.9-22.1,24.1c8.2,6.9,15.9,13.2,23.9,20C219.7,311.1,226.1,297.6,232.7,283.2z M193.2,327.7
		c-3.2-2.7-6.3-4.9-9-7.7c-3.8-4.1-6.8-4.2-11.1-0.3c-9.3,8.6-9.7,8.3-3.7,19.7c0.7,1.4,3,2.8,4.6,3c12.4,0.7,12.4,0.6,17.5-10.8
		C192.1,330.5,192.5,329.4,193.2,327.7z M92.8,124.7c-3.8,0-7.3-0.4-10.7,0.1c-1.7,0.4-4.4,2.7-4.5,4.2c-0.6,5.1-0.8,10.3,0.1,15.2
		c0.6,2.7,3.7,5.4,6.2,7c2.4,1.4,5.6,1.4,8.7,2.1C92.8,143.8,92.8,134.5,92.8,124.7z M264.5,153.3c5.5-1.3,12.4-0.4,13.9-6.2
		c1.7-6.3,2.1-13.8,0.1-19.9c-1.5-4.9-8.5-2-13-2.3c-0.3,0-0.6,0.3-1.1,0.6C264.5,134.5,264.5,143.6,264.5,153.3z"/>
	<path d="M74.1,446c0-16.3,0-32.7,0-49c0-5.6,3-9,7.5-9c4.5,0,7.3,3.4,7.3,9c0,15.5,0,31,0,46.3c0,17.2,0,34.5,0,51.7
		c0,5.6-3,9-7.5,9c-4.5,0-7.3-3.4-7.3-9C74.1,478.7,74.1,462.4,74.1,446z"/>
</g>
</svg>
