<?xml version="1.0" encoding="utf-8"?>
<!-- Generator: Adobe Illustrator 21.0.2, SVG Export Plug-In . SVG Version: 6.00 Build 0)  -->
<svg version="1.1" id="Layer_1" xmlns="http://www.w3.org/2000/svg" xmlns:xlink="http://www.w3.org/1999/xlink" x="0px" y="0px"
	 viewBox="0 0 489.7 489.7" style="enable-background:new 0 0 489.7 489.7;" xml:space="preserve">
<g>
	<path d="M216.3,490.5c-8.6-1.2-17.4-2.1-25.9-3.8C130.3,475.1,83,443.7,49,393c-28.4-42.3-39.7-89.2-35.2-139.9
		C21.9,160.9,91.1,82.2,181.7,62c24.3-5.4,48.8-6.9,73.6-3.8c0.6,0.1,1.2,0.2,1.6,0.3c-2.1,7.8-4.3,15.4-6.2,23.1
		c-0.7,3-2.7,2.3-4.7,2.5c-9.5,0.8-19,1.5-28.4,3c-4.9,0.8-10.4,2.7-11.6,8.6c-1.2,6,2.9,10.1,7.4,12.9c8.1,5,16.7,9.1,25.1,13.7
		c5,2.7,10.2,5.2,14.8,8.6c7.5,5.5,7.6,12,0.3,17.7c-6.8,5.3-14.1,9.9-20.9,15.1c-3.8,2.9-7.4,6.1-10.4,9.7
		c-5.2,6.2-3.4,13,3.8,16.4c7.4,3.6,8.2,5.1,6.6,13.4c-1.6,8.3-4.9,15.8-10.6,22.1c-7.4,8.1-14.1,8.1-22.1,0.6
		c-6.8-6.4-13.5-13.2-21.1-18.5c-5.3-3.7-12-6-18.4-7.3c-15.3-2.9-31.3,10.5-31.6,25.6c-0.3,12.8,9.2,20.7,21.6,17.9
		c2.9-0.7,5.8-1.7,8.7-2.5c10.6-2.7,14.9-0.1,16.8,10.7c1.5,8.3,2.3,16.7,3.8,25c2.2,11.6,8.7,19.8,19.8,24.5
		c10.4,4.4,20.8,8.9,30.7,14.2c16.8,8.9,27.6,22.5,31.3,41.6c1.9,10.2-1,18.4-9.4,24.1c-5.5,3.8-11.3,7.2-17.3,10.1
		c-15.6,7.4-26.1,18.9-30.9,35.6c-2.2,7.6-6.3,13.5-14.9,15c-10,1.8-16.6-4-14.7-13.8c1.6-8.9,0.5-17.1-3.5-25.1
		c-4-8-4.1-15.7,0.4-23.6c3.1-5.5,2.5-8.7-2.6-12.5c-4.9-3.7-10.5-6.6-15.6-10.1c-4.6-3.1-9.5-6-13.3-9.9c-5.7-5.8-5.1-13.1,1-18.5
		c4.2-3.7,8.9-6.7,13.2-10.3c12.5-10.2,10.6-26.6-4.3-33c-10.4-4.4-21.2-7.6-32-11.2c-23.4-7.6-38-23.9-47.2-46.2
		c-5.4-13.1-8.5-26.6-9.1-41.2c-35.3,62.2-32.6,165,45.7,231.7c74.3,63.3,181.8,58.6,250.8-5.1c-0.5-0.7-1-1.5-1.6-2.1
		c-5.2-5.5-6.4-11.9-4.1-19c1.1-3.3,2.1-6.7,3.1-10c1.4-4.7-0.5-8.1-4.8-10.1c-1.3-0.6-2.7-1-3.9-1.7c-3.1-2-7.8-3.5-8.6-6.2
		c-1.6-5.6-0.7-11.9,4.1-16.3c3.1-2.9,6.9-5.1,10.4-7.5c8.3-5.5,9.3-10.5,3.4-18.6c-4.5-6.1-10.1-9.8-18.1-9.6
		c-9.1,0.2-17.6-2.3-25.2-7.6c-5.6-3.9-9.2-9.3-8.4-16.2c1.6-14.1-5.6-21.8-17.6-26.6c-3.4-1.4-6.8-2.8-10.1-4.2
		c-10.8-4.6-13.5-8.6-13.4-20.4c0-13.1,9.5-27.1,21.7-31.7c1.3-0.5,3.6-0.2,4.4,0.6c16.3,18.3,33.8,35.7,46.3,57
		c4.6,7.8,8.2,16.2,12.4,24.2c5.7,10.9,14.9,16.6,27,16.5c11.9-0.1,20.9-5.9,26.4-16.7c4.3-8.3,7.8-17.2,12.9-25
		c8-12.2,17.1-23.6,25.8-35.4c0.6,0.2,1.2,0.4,1.9,0.6c1.3,8.2,3,16.4,3.7,24.6c6,75.4-19.5,138.3-76.8,187.7
		c-32.1,27.7-69.9,43.8-112.1,49c-4.2,0.5-8.4,1.2-12.6,1.8C234.8,490.5,225.6,490.5,216.3,490.5z"/>
	<path d="M479.5,106.8c-0.2,29.9-11.8,55.1-30.8,77.4c-10.5,12.4-21.4,24.5-32.1,36.7c-13.8,15.8-25.3,33.1-33.6,52.4
		c-0.3,0.7-0.7,1.4-1,2.2c-1.4,3.3-3.5,5.7-7.5,5.6c-3.9,0-6-2.4-7.4-5.7c-7.1-16.5-15.9-31.9-27.4-45.7
		c-11.8-14-23.9-27.8-35.9-41.6c-12.4-14.3-23-29.7-28.6-48C257.1,81.3,291.5,16.4,353.2,3c58-12.6,114.9,26.8,124.4,85.7
		C478.5,94.7,478.8,100.8,479.5,106.8z M374.7,50.2c-30.4-0.1-55,24.4-55.1,54.8c-0.1,30.6,24.5,55.4,55,55.5
		c30.3,0,55-24.5,55.1-54.9C429.8,74.9,405.3,50.3,374.7,50.2z"/>
</g>
</svg>
