<?xml version="1.0" encoding="utf-8"?>
<!-- Generator: Adobe Illustrator 21.0.2, SVG Export Plug-In . SVG Version: 6.00 Build 0)  -->
<svg version="1.1" id="Layer_1" xmlns="http://www.w3.org/2000/svg" xmlns:xlink="http://www.w3.org/1999/xlink" x="0px" y="0px"
	 viewBox="0 0 333 409" style="enable-background:new 0 0 333 409;" xml:space="preserve">
<g>
	<path d="M321.8,0.1c3.3,2.1,4.1,5.2,4,8.9c-0.1,13.1-0.1,26.1-0.1,39.2c0,0.8,0,1.6,0,2.4c-0.3,4-2.8,6.5-6.3,6.3
		c-3.3-0.2-5.6-2.6-5.6-6.5c-0.1-10.8,0-21.6,0-32.4c0-1.7,0-3.5,0-5.5c-98.6,0-197,0-295.6,0c0,128.2,0,256.4,0,384.9
		c75,0,150.1,0,225.9,0c0-1.2,0-2.6,0-4c0-18.9,0-37.9,0-56.8c0-6.8,1.7-8.5,8.5-8.5c18.8,0,37.6,0,56.4,0c1.4,0,2.9,0,4.8,0
		c0-2,0-3.7,0-5.4c0-79.6,0-159.2,0-238.8c0-1.5-0.1-2.9,0.1-4.4c0.4-3.4,2.5-5.4,5.8-5.5c3.1-0.1,5.2,1.8,5.9,4.9
		c0.3,1.3,0.2,2.7,0.2,4c0,82.7,0,165.3,0.1,248c0,3.9-1.2,6.8-4,9.6c-21.8,21.7-43.6,43.5-65.3,65.3c-2.7,2.7-5.6,4-9.5,4
		c-77.5-0.1-154.9-0.1-232.4-0.1c-6.9,0-8.8-1.9-8.8-8.7c0-130.6,0-261.3-0.1-391.9c0-3.7,0.7-6.8,4-8.9
		C113.8,0.1,217.8,0.1,321.8,0.1z M256.2,387.1c15.6-15.6,31.5-31.5,46.8-46.8c-14.9,0-30.9,0-46.8,0
		C256.2,356.4,256.2,372.2,256.2,387.1z"/>
	<path d="M165.4,140.3c-39.3,0-78.6,0-117.9,0c-8,0-9.6-1.6-9.6-9.6c0-25.6,0-51.2,0-76.8c0-7.2,1.9-9,9-9c79.3,0,158.6,0,237.9,0
		c7.1,0,9,1.9,9,9c0,25.9,0,51.7,0,77.6c0,6.9-1.8,8.7-8.8,8.7C245.1,140.3,205.2,140.3,165.4,140.3z M281.5,128.1
		c0-23.9,0-47.3,0-70.9c-77.2,0-154.2,0-231.3,0c0,23.7,0,47.3,0,70.9C127.4,128.1,204.2,128.1,281.5,128.1z"/>
	<path d="M159,237.1c0,24.5,0,49,0,73.6c0,7.7-1.7,9.3-9.4,9.3c-34.1,0-68.2,0-102.4,0c-7.4,0-9.3-1.8-9.3-9.2
		c0-49.2,0-98.4,0-147.5c0-7.6,1.8-9.3,9.5-9.3c34,0,68,0,102,0c8,0,9.6,1.6,9.6,9.6C159,188,159,212.6,159,237.1z M146.7,166.2
		c-32.3,0-64.3,0-96.4,0c0,47.3,0,94.4,0,141.5c32.3,0,64.3,0,96.4,0C146.7,260.5,146.7,213.5,146.7,166.2z"/>
	<path d="M233,153.9c17.2,0,34.4,0,51.6,0c7.3,0,9.1,1.8,9.1,9.3c0,19.3,0,38.7,0,58c0,7.1-1.9,9-9,9c-34.4,0-68.8,0-103.2,0
		c-7.1,0-8.8-1.7-8.9-8.7c0-19.6,0-39.2,0-58.8c0-7,1.8-8.8,8.8-8.8C198.6,153.9,215.8,153.9,233,153.9z M184.7,217.9
		c32.5,0,64.6,0,96.7,0c0-17.3,0-34.4,0-51.6c-0.8-0.1-1.3-0.3-1.8-0.3c-30.7,0-61.3,0-92-0.1c-3.1,0-3,1.7-3,3.8
		c0,13.7,0,27.5,0,41.2C184.7,213.2,184.7,215.4,184.7,217.9z"/>
	<path d="M233,243.8c17.3,0,34.7,0,52,0c6.9,0,8.7,1.9,8.7,8.8c0,19.5,0,38.9,0,58.4c0,7.1-1.9,9-9.1,9c-34.4,0-68.8,0-103.2,0
		c-7,0-8.8-1.8-8.8-8.7c0-19.6,0-39.2,0-58.8c0-7,1.7-8.7,8.8-8.7C198.6,243.8,215.8,243.8,233,243.8z M184.9,307.7
		c32.3,0,64.3,0,96.5,0c0-17.3,0-34.4,0-51.6c-32.3,0-64.4,0-96.5,0C184.9,273.5,184.9,290.5,184.9,307.7z"/>
</g>
</svg>
