<?xml version="1.0" encoding="utf-8"?>
<!-- Generator: Adobe Illustrator 21.0.2, SVG Export Plug-In . SVG Version: 6.00 Build 0)  -->
<svg version="1.1" id="Layer_1" xmlns="http://www.w3.org/2000/svg" xmlns:xlink="http://www.w3.org/1999/xlink" x="0px" y="0px"
	 viewBox="0 0 384 384" style="enable-background:new 0 0 384 384;" xml:space="preserve">
<g>
	<path d="M181.5,0.7c6.4,0.9,12.8,1.8,19.2,2.9c17.3,3,33.4,9.1,48.5,18c15.7,9.2,22.5,24.1,19.1,41.9c-2.6,13.5-5.2,27-7.9,40.4
		c-0.4,2-0.1,3.3,1.7,4.7c7,5.4,9.6,14,6.9,22.1c-2.6,7.9-9.8,13.1-18.4,13.5c-3.1,0.1-7-1-9.1,0.5c-2,1.5-2,5.6-3.1,8.5
		c-4.1,10.6-11.8,17.7-21.8,22.6c-4.6,2.3-4.8,6.5-0.7,9.6c3.5,2.6,6.6,5.7,9.9,8.4c1,0.8,2.3,1.4,3.5,1.5c10,0.4,19.9,0.7,29.9,1
		c0.7,0,1.6-0.5,2.2-1c5.5-4.2,9.1-4.6,15.1-1.1c14.1,8.1,28.1,16.2,42.2,24.3c6.8,3.9,13.6,7.8,20.4,11.8c7,4.1,8.7,10.5,4.7,17.5
		c-8.7,15.2-17.4,30.3-26.2,45.4c-1.1,1.9-1.2,3.1,0.5,4.8c7.8,8.2,9.1,18.6,3.8,27.4c-5.4,8.9-15.2,12.3-26.5,9
		c-0.3-0.1-0.7-0.1-1.2-0.1c-4,4.6-5,11.7-11.4,14.4c-6.7,2.8-11.6-1.7-17.5-4.8c0,6.9,0,13.2,0,19.5c0,2.7-0.2,5.5,0,8.2
		c0.5,5.8-1.4,10.2-6.7,13c-7.3,0-14.5,0-21.8,0c-2.3-2-4.5-4.1-3.1-7.6c1.4-3.5,4.3-3.8,7.4-3.7c4.1,0.1,8.2,0,12.6,0
		c0.1-1.5,0.2-2.7,0.2-3.9c0-9.5-0.1-19,0.1-28.5c0-2.7-0.8-4.2-3.2-5.6c-13.9-7.9-27.7-15.9-41.5-23.9c-8-4.6-9.6-10.5-4.9-18.5
		c15.7-27.3,31.4-54.5,47.2-81.7c0.7-1.3,1.4-2.6,2.4-4.3c-7.7,0-15,0-22.6,0c1.5,13.1-6.2,23.5-10.9,34.7
		c-2.3,5.5-8.3,6.7-13.2,3.1c-5.7-4.1-11.2-8.4-16.8-12.6c-3.9-3-5.4-3-9.3,0c-5.3,4-10.5,8-15.8,12c-6,4.5-11.8,3.1-14.9-3.8
		c-2.1-4.5-4-9.2-6.1-13.7c-3-6.2-4.9-12.6-3.8-20.1c-11.3,0.6-22.6-2-33.3,3.2c-5.8,2.8-10.4,6.9-13.7,12.4
		c-2.5,4.2-4.9,8.4-7.5,12.5c-2.1,3.4-5.4,4.3-8.2,2.5c-2.7-1.7-3.3-4.9-1.4-8.2c2.7-4.8,5.4-9.6,8.5-14.1
		c8-11.8,19.2-18.5,33.4-19.3c7.8-0.5,15.7-0.1,23.6-0.3c1.6-0.1,3.3-1.1,4.7-2.1c3.4-2.6,6.4-5.5,9.8-8c3.5-2.6,3.3-7.1-0.6-9
		c-12.5-6.2-21.5-15.3-24.2-29.5c-0.1-0.7-0.5-1.4-0.8-2.4c-3.1,0-6.2,0.1-9.3,0c-8.9-0.3-16.1-5.6-18.7-13.6
		c-2.7-8.1,0-16.7,7-22.1c1.7-1.3,2.1-2.4,1.7-4.4c-2.9-14.6-5.7-29.2-8.5-43.7c-1.7-9,1.9-16.1,10.7-18.8
		c5.9-1.8,12.2-2.5,18.3-3.3c2-0.3,3.4-0.7,4.5-2.5c4.2-6.9,8.9-13.6,12.9-20.6c3.9-6.7,8.6-12.2,16.3-14.5
		C171,0.8,176.3,0.8,181.5,0.7z M131.3,104.3c0.3-1.6,0.5-3,0.7-4.3c1.9-11.6,4.1-23.2,9.9-33.6c2.7-4.8,6.6-9,10.5-12.9
		c2.9-2.8,5.4-1.9,8.6,0.8c4.6,3.8,9.1,7.8,14.2,10.8c15.1,8.7,31.6,13.3,48.7,16.5c9.2,1.7,13.9,6.6,15.5,15.8
		c1.3,7.4,1.3,7.4,8.7,6.9c0.2,0,0.4-0.2,0.7-0.3c0.2-0.6,0.4-1.1,0.5-1.8c2.6-13.6,5.3-27.2,7.8-40.8c2.5-13.8-2-23.4-14.2-30.4
		c-22-12.7-45.9-18.5-71.2-19c-4.8-0.1-8,1.6-10.5,5.6c-5.4,8.8-11.2,17.4-16.5,26.3c-2.5,4.1-5.3,5.8-10.3,5.8
		c-5.3,0-10.6,1-15.8,2.2c-4.7,1.1-5.3,2.7-4.4,7.4c1.7,8.8,3.4,17.6,5.1,26.5c1.2,6.2,2.4,12.4,3.7,18.6
		C125.9,104.3,128.4,104.3,131.3,104.3z M155.5,65.3c-1.1,1.6-2.1,2.9-2.8,4.3c-1.3,2.7-2.7,5.4-3.7,8.2c-6.7,20-9,40.6-7.1,61.7
		c1.1,11.8,6.7,20.6,17.4,25.7c17.9,8.4,36,8.3,53.8-0.2c8.8-4.2,14.6-11.3,16.2-21.2c2.5-15.2,1.4-30.4-1.2-45.5
		c-0.7-3.9-3.5-5.1-6.9-5.8C197.7,88,175.1,80.8,155.5,65.3z M322.1,233.5c-2,3.5-3.9,6.7-5.8,9.9c-3.9,6.6-9.5,8-16.2,4.2
		c-6.4-3.6-12.8-7.3-19.1-11c-6.7-3.9-8.1-9.5-4.4-16.2c1.8-3.3,3.7-6.5,5.7-9.9c-4.3-2.5-8.4-4.9-12.8-7.4
		c-6.5,11.2-12.9,22.3-19.6,34c8.1-0.3,13,4,17.8,9c12.3,12.9,24.8,25.7,37.3,38.5c0.9,0.9,1.9,1.8,3,2.9
		c9-15.6,17.9-30.9,26.9-46.6C330.5,238.3,326.5,236,322.1,233.5z M278.5,338.5c1.9-3.2,3.3-6.1,5.1-8.8c1.4-2,1.1-3.3-0.6-5
		c-9.4-9.5-18.7-19.1-28-28.7c-8.1-8.4-16.3-16.8-24.6-25.4c-5.8,10.1-11.5,20-17.4,30.2C235,313.4,256.6,325.9,278.5,338.5z
		 M260.3,285.1c11.3,11.7,22.9,23.7,34.6,35.7c4.8,5,11.2,5.2,15.6,0.9c4.5-4.4,4.3-10.9-0.6-16c-10.9-11.3-21.9-22.6-32.8-33.9
		c-0.7-0.7-1.4-1.3-2.5-2.2C269.8,274.9,265.1,279.9,260.3,285.1z M170.2,181.7c0,5.9-0.1,12.1,0.1,18.3c0.1,1.6,1,3.5,2.1,4.6
		c4.3,4.1,8.9,7.9,13.5,11.9c4.6-3.9,8.9-7.5,13-11.3c1.3-1.2,2.6-3.1,2.6-4.8c0.3-6.4,0.1-12.9,0.1-18.7
		C191.2,181.7,180.9,181.7,170.2,181.7z M267,260.6c-3.5-3.3-7.4-7.1-11.5-10.7c-2.2-1.9-5-2.4-7.2-0.6c-3,2.4-6,5-8.1,8.1
		c-1.1,1.6-0.9,5.4,0.3,6.8c3.7,4.1,8.1,7.5,12.5,11.5C257.1,271.3,261.7,266.3,267,260.6z M175.6,222.5c-7.9-7-17.3-12.4-16.9-24.7
		c-6,3.8-8.8,11.6-6.3,18.7c2.1,5.9,5,11.6,7.6,17.7C165.3,230.2,170.3,226.5,175.6,222.5z M213.2,197.8
		c0.5,12.3-9.1,17.8-16.8,24.7c5.3,4,10.3,7.8,15.5,11.8c2.7-6.2,5.5-11.8,7.6-17.8C222,209.4,219.2,201.6,213.2,197.8z
		 M312.4,227.8c-6.9-4-13.5-7.8-20.3-11.7c-2.1,3.6-4,6.8-6,10.4c6.9,4,13.5,7.8,20.3,11.7C308.4,234.7,310.2,231.5,312.4,227.8z
		 M242,115.9c0,5.7,0,11.2,0,17c3.2,0,6,0.2,8.9,0c4.4-0.3,7.6-3.7,7.9-8c0.2-4.3-2.5-8.2-6.9-8.9
		C248.6,115.5,245.3,115.9,242,115.9z M129.9,115.5c-3.6,0.2-7.1,0-10.5,0.7c-4.2,0.8-6.6,4.6-6.3,8.9c0.3,4.1,3.4,7.4,7.6,7.8
		c2.9,0.2,5.9,0,9.1,0C129.9,127.1,129.9,121.6,129.9,115.5z"/>
	<path d="M113.3,384.8c-5.3-2.7-7.4-7.2-6.6-12.9c0.5-4.2-1.2-6.8-4.3-9.5c-18.1-15.4-35.9-31-53.8-46.6c-10-8.7-11.7-19.7-4.9-31.2
		c6.1-10.3,12.2-20.6,18.4-30.9c0.9-1.5,2.5-3.4,3.9-3.6c1.9-0.2,5,0.5,5.8,1.9c1,1.8,1.1,5,0.1,6.8c-5,9.1-10.2,18.1-15.8,26.8
		c-8.3,12.9-6.1,16.9,3.9,25.3c14.6,12.3,28.9,25,43.3,37.6c0.9,0.8,1.9,1.5,3.4,2.8c0-9.5,0.1-18.3-0.1-27.1c0-0.9-1.1-1.9-1.9-2.6
		c-6-5.3-12.1-10.5-18.1-15.8c-7.8-6.8-9.1-14.6-3.8-23.4c7.1-11.9,14.1-23.9,21.3-35.7c1.9-3.1,2.9-6.2,2.6-9.8
		c-0.2-2.2-0.2-4.5,0.1-6.7c0.5-3.1,2.6-5,5.7-4.8c3.1,0.1,5,2,5.3,5.2c0.1,1.2,0.1,2.5,0.1,3.7c0,44.7,0,89.5,0,134.2
		c0,1.5,0,3,0,5.1c1.6,0,3.1,0,4.5,0c29.6,0,59.2,0,88.8,0c5.1,0,8.2,2.8,7,6.8c-0.5,1.7-2.4,3-3.6,4.5
		C180.8,384.8,147,384.8,113.3,384.8z M106.4,265.7c-0.2,0-0.4-0.1-0.6-0.1c-3.4,5.8-6.9,11.5-10.3,17.3c-6.3,10.6-7,9.8,2.9,18.2
		c2.6,2.2,5.1,4.4,8.1,6.9C106.4,293.3,106.4,279.5,106.4,265.7z"/>
	<path d="M153.4,306.9c-5.5,0-11,0-16.5,0c-5.9-0.1-8.8-2.8-8.9-8.6c-0.1-6.7-0.1-13.5,0-20.2c0.1-5.7,3.1-8.7,8.9-8.7
		c11.1-0.1,22.2-0.1,33.3,0c6,0,9,3,9.1,8.9c0.1,6.6,0.1,13.2,0,19.8c-0.1,5.9-2.9,8.7-8.8,8.8C164.9,306.9,159.2,306.9,153.4,306.9
		z M168,280.8c-9.8,0-19,0-28.5,0c0,5,0,9.8,0,14.6c9.6,0,19,0,28.5,0C168,290.4,168,285.7,168,280.8z"/>
	<path d="M187.2,152.2c-4-1.1-7.9-1.8-11.5-3.1c-3.4-1.2-4.5-4.3-3.4-7.2c1.2-3.1,4.2-4.4,7.7-3c4.9,2,9.6,2,14.5,0
		c3.4-1.4,6.5-0.1,7.7,3c1.1,2.9-0.1,6-3.4,7.3C195.1,150.4,191.2,151.2,187.2,152.2z"/>
	<path d="M213.1,116.1c0,3.8-2.1,6.2-5.4,6.2c-3.4,0.1-5.8-2.5-5.8-6.3c0-3.6,2.4-6.2,5.5-6.3C210.8,109.6,213.2,112.3,213.1,116.1z
		"/>
	<path d="M158.8,116.1c0-3.8,2.4-6.5,5.7-6.4c3.1,0.1,5.5,2.8,5.5,6.3c0,3.8-2.4,6.4-5.8,6.3C160.9,122.3,158.8,119.9,158.8,116.1z"
		/>
</g>
</svg>
