<svg version="1.1" id="Layer_1" xmlns="http://www.w3.org/2000/svg" xmlns:xlink="http://www.w3.org/1999/xlink" x="0px" y="0px"
	 viewBox="0 0 368 286" style="enable-background:new 0 0 368 286;" xml:space="preserve">
<g>
	<path d="M184.6,51.3c-53.9,0-107.7,0-161.6,0C9.3,51.3,0,42.4,0.5,30c0.4-10.3,8.7-18.7,18.9-19.4c1.1-0.1,2.2-0.1,3.4-0.1
		c107.9,0,215.8,0,323.7,0c11.7,0,19.5,5.8,21.9,16.1c2.8,11.8-5.9,23.6-18,24.6c-2.1,0.2-4.2,0.1-6.2,0.1
		C291,51.3,237.8,51.3,184.6,51.3z"/>
	<path d="M123.2,164.1c-33.7,0-67.4,0-101.2,0c-12.3,0-21.2-8.4-21.5-19.7c-0.3-11.2,8.2-20.3,19.3-21c1.1-0.1,2.2-0.1,3.4-0.1
		c66.8,0,133.6,0,200.4,0c10.7,0,18,4.6,21.2,13.2c5,13.3-4.5,27.3-19,27.5c-20.3,0.3-40.6,0.1-60.9,0.1
		C151.1,164.1,137.2,164.1,123.2,164.1z"/>
	<path d="M72.2,276.9c-17.4,0-34.8,0.2-52.3-0.1c-10.1-0.1-18.2-8-19.3-17.9c-1.1-9.9,5.1-19.2,14.7-22c1.5-0.4,3.1-0.7,4.7-0.7
		c34.7,0,69.4-0.1,104,0c10,0,18.2,7.7,19.4,17.2c1.3,10.5-4.5,19.7-14.3,22.6c-2.6,0.7-5.4,0.9-8,0.9
		C104.8,277,88.5,277,72.2,276.9C72.2,276.9,72.2,276.9,72.2,276.9z"/>
</g>
</svg>
