<?xml version="1.0" encoding="utf-8"?>
<!-- Generator: Adobe Illustrator 21.0.2, SVG Export Plug-In . SVG Version: 6.00 Build 0)  -->
<svg version="1.1" id="Layer_1" xmlns="http://www.w3.org/2000/svg" xmlns:xlink="http://www.w3.org/1999/xlink" x="0px" y="0px"
	 viewBox="0 0 384 384" style="enable-background:new 0 0 384 384;" xml:space="preserve">
<g>
	<path d="M150.7,342.1c0,5.3,0,11.3,0,17.3c0,11.8-7.5,19.3-19.1,19.3c-35.2,0-70.5,0-105.7,0c-11.5,0-19.1-7.6-19.1-19
		c0-51.4,0-102.7,0-154.1c0-11.2,7.6-18.8,18.8-18.9c5.6,0,11.2,0,17.2,0c0-1.8,0-3.2,0-4.7c0-47.6,0-95.2,0-142.9
		c0-20,12.5-32.4,32.6-32.4c78.4,0,156.7,0,235.1,0c19.8,0,32.3,12.5,32.3,32.3c0,79.6,0,159.2,0,238.8c0,1.5,0,3,0,4.5
		c4.1,0.3,7.9,0.3,11.7,1c15,2.8,25.5,16.6,24.2,31.8c-1.3,15.1-13.9,27.2-29.2,27.4c-17.5,0.2-35,0.1-52.5,0.1c-43,0-86,0-129,0
		C162.4,342.7,156.7,342.3,150.7,342.1z M18.8,282.6c0,25.5,0,51,0,76.5c0,5.3,2.1,7.6,7,7.6c35.4,0,70.7,0,106.1,0
		c4.7,0,6.9-2.3,6.9-6.9c0.1-6.9-0.1-13.7,0.1-20.6c0.1-2.4-0.9-3.2-2.9-3.9c-7.3-2.6-14.5-5.4-21.7-8.1
		c-7.6-2.9-11.5-7.8-11.4-14.5c0-6.6,3.9-11.4,11.2-14.3c7.1-2.7,14.2-5.5,21.4-8c2.8-0.9,3.4-2.3,3.4-5.1c-0.1-26-0.1-52-0.1-78
		c0-6.9-1.7-8.6-8.6-8.6c-34.2,0-68.5,0-102.7,0c-6.9,0-8.7,1.7-8.7,8.6C18.7,232.4,18.8,257.5,18.8,282.6z M330.7,78.6
		c0-1,0-1.9,0-2.7c0-12.9,0.1-25.7,0-38.6c-0.1-10.7-7.7-18.5-18.5-18.5c-79.7,0-159.4,0-239.1,0c-10.7,0-18.3,7.8-18.4,18.5
		c-0.1,12.7,0,25.5,0,38.2c0,1,0,1.9,0,3C146.8,78.6,238.5,78.6,330.7,78.6z M330.6,91c-92.1,0-183.9,0-275.7,0c0,32,0,63.7,0,95.5
		c4,0,7.8,0,11.8,0c0-1.6,0-2.9,0-4.3c0-21.6,0-43.2,0-64.9c0-10.2,4.4-14.6,14.5-14.6c74.2,0,148.5,0,222.7,0
		c10.5,0,14.8,4.3,14.8,14.8c0,53.6,0,107.2,0,160.8c0,1.4,0,2.9,0,4.2c4.3,0,8,0,11.9,0C330.6,218.6,330.6,154.9,330.6,91z
		 M318.6,295c-52.1,0-103.8,0-155.5,0c0,4.1,0,7.8,0,11.6c52,0,103.7,0,155.5,0C318.6,302.7,318.6,299,318.6,295z M318.6,319
		c-52.1,0-103.9,0-155.7,0c0,4,0,7.7,0,11.5c52,0,103.7,0,155.7,0C318.6,326.6,318.6,322.9,318.6,319z M114.5,150.7
		c0-12.1,0-23.9,0-35.7c-12,0-23.8,0-35.5,0c0,12,0,23.8,0,35.7C90.9,150.7,102.5,150.7,114.5,150.7z M162.5,150.6
		c0-12.1,0-23.9,0-35.5c-12,0-23.8,0-35.5,0c0,12,0,23.7,0,35.5C138.8,150.6,150.5,150.6,162.5,150.6z M175,114.9
		c0,12.1,0,23.8,0,35.6c12,0,23.8,0,35.5,0c0-12,0-23.8,0-35.6C198.5,114.9,186.8,114.9,175,114.9z M258.5,150.6
		c0-12.1,0-23.9,0-35.5c-12,0-23.8,0-35.5,0c0,12,0,23.7,0,35.5C234.8,150.6,246.5,150.6,258.5,150.6z M271,114.9
		c0,12.1,0,23.9,0,35.5c12,0,23.8,0,35.5,0c0-12,0-23.7,0-35.5C294.7,114.9,283,114.9,271,114.9z M271,162.8c0,12.1,0,23.9,0,35.7
		c12,0,23.8,0,35.5,0c0-12,0-23.8,0-35.7C294.6,162.8,283,162.8,271,162.8z M174.9,246.5c12.1,0,23.9,0,35.5,0c0-12,0-23.8,0-35.5
		c-12,0-23.7,0-35.5,0C174.9,222.8,174.9,234.5,174.9,246.5z M222.9,246.5c12.1,0,23.9,0,35.5,0c0-12,0-23.8,0-35.5
		c-12,0-23.7,0-35.5,0C222.9,222.8,222.9,234.5,222.9,246.5z M270.8,246.4c11.9,0,23.8,0,35.7,0c0-11.9,0-23.7,0-35.4
		c-12,0-23.8,0-35.7,0C270.8,222.9,270.8,234.5,270.8,246.4z M223,162.9c0,12.1,0,23.9,0,35.5c12,0,23.8,0,35.5,0
		c0-12,0-23.7,0-35.5C246.7,162.9,235,162.9,223,162.9z M210.5,198.6c0-12.1,0-23.9,0-35.7c-12,0-23.7,0-35.5,0c0,12,0,23.7,0,35.7
		C186.9,198.6,198.6,198.6,210.5,198.6z M330.9,330.7c6.3,0,12.1,0.1,18,0c9.4-0.2,17.1-7.3,17.8-16.5c0.7-9.2-5.5-17.9-14.9-19.1
		c-6.8-0.8-13.9-0.2-20.9-0.2C330.9,306.9,330.9,318.6,330.9,330.7z M162.6,163c-12.1,0-23.9,0-35.6,0c0,8,0,15.7,0,23.5
		c0.6,0.1,1.1,0.2,1.6,0.2c9.1-0.6,16.5,2.1,20.7,10.9c0.3,0.6,1.3,1.1,2,1.1c3.7,0.1,7.4,0,11.3,0C162.6,186.7,162.6,175,162.6,163
		z M114.6,163c-12.1,0-23.9,0-35.5,0c0,8,0,15.8,0,23.5c12,0,23.7,0,35.5,0C114.6,178.7,114.6,171,114.6,163z M175,258.9
		c0,8.1,0,15.9,0,23.7c12,0,23.7,0,35.5,0c0-8,0-15.7,0-23.7C198.6,258.9,186.9,258.9,175,258.9z M223,258.9c0,8.2,0,16,0,23.7
		c12,0,23.7,0,35.5,0c0-8,0-15.8,0-23.7C246.6,258.9,234.9,258.9,223,258.9z M271,258.9c0,8.1,0,15.8,0,23.6c12,0,23.8,0,35.5,0
		c0-8,0-15.8,0-23.6C294.5,258.9,282.8,258.9,271,258.9z M150.6,297.5c-11.5,4.3-22.6,8.4-33.6,12.7c-0.9,0.4-2,1.8-2,2.7
		c0,0.9,1.2,2.1,2.2,2.6c2.5,1.2,5.1,2,7.7,2.9c8.5,3.2,17,6.3,25.7,9.6C150.6,317.7,150.6,307.9,150.6,297.5z M162.5,246.6
		c0-12.1,0-23.9,0-35.5c-4.1,0-7.8,0-11.5,0c0,12,0,23.7,0,35.5C154.8,246.6,158.5,246.6,162.5,246.6z M162.6,259
		c-4.1,0-7.9,0-11.6,0c0,8.5,0,16.8,0,24.8c4-0.5,7.7-1,11.6-1.5C162.6,274.6,162.6,267,162.6,259z"/>
	<path d="M30.9,258.4c0-15.8,0-31.5,0-47.5c31.9,0,63.7,0,95.6,0c0,15.8,0,31.5,0,47.5C94.9,258.4,63.1,258.4,30.9,258.4z
		 M114.6,223c-24.1,0-47.9,0-71.5,0c0,8.1,0,15.8,0,23.5c24,0,47.7,0,71.5,0C114.6,238.7,114.6,231,114.6,223z"/>
	<path d="M42.5,347.1c15.4-15.4,29.7-29.8,44.2-44.3c2.6,2.7,5.1,5.3,7.4,7.7c-17.2,17.2-34.4,34.4-51.4,51.4
		c-4.7-4.7-9.9-9.9-15.3-15.3c2.4-2.1,5.2-4.7,8.7-7.8C37.7,341,39.9,343.7,42.5,347.1z"/>
	<path d="M30.9,282.5c0-3.9,0-7.6,0-11.5c11.8,0,23.5,0,35.5,0c0,3.7,0,7.5,0,11.5C54.8,282.5,43,282.5,30.9,282.5z"/>
	<path d="M30.9,306.5c0-4,0-7.7,0-11.6c11.9,0,23.5,0,35.5,0c0,3.7,0,7.5,0,11.6C54.8,306.5,43,306.5,30.9,306.5z"/>
	<path d="M114.7,48.9c-0.1,9.8-8.2,17.8-18,17.8c-9.9,0-18.1-8.2-18-18.2c0.1-9.9,8.4-18,18.3-17.8
		C106.9,30.9,114.8,39.1,114.7,48.9z M96.6,54.7c3.2,0.1,6-2.5,6.2-5.8c0.1-3.2-2.5-6-5.8-6.1c-3.2-0.1-6,2.5-6.1,5.8
		C90.7,51.8,93.3,54.6,96.6,54.7z"/>
	<path d="M156.6,66.7c-9.9-0.1-18-8.3-17.9-18.3c0.1-9.8,8.3-17.7,18.1-17.7c9.9,0.1,18,8.3,17.9,18.3
		C174.6,58.8,166.4,66.8,156.6,66.7z M156.9,54.7c3.2-0.1,5.9-2.9,5.8-6.1c-0.1-3.3-2.9-5.9-6.1-5.8c-3.3,0.1-5.9,2.9-5.8,6.1
		C150.9,52.1,153.6,54.8,156.9,54.7z"/>
	<path d="M246.7,48.8c0,9.8-8.1,17.9-17.9,17.9c-10,0-18.1-8.1-18.1-18.1c0-9.9,8.3-18,18.3-17.9C238.8,30.9,246.8,39,246.7,48.8z
		 M222.8,48.5c-0.2,3.2,2.4,6.1,5.7,6.3c3.2,0.2,6.1-2.4,6.3-5.7c0.2-3.2-2.4-6.1-5.7-6.3C225.8,42.6,222.9,45.2,222.8,48.5z"/>
	<path d="M288.8,30.8c9.9,0,18,8.3,17.9,18.2c-0.1,9.8-8.2,17.8-18,17.8c-9.9,0-18-8.3-17.9-18.2C270.9,38.7,279,30.7,288.8,30.8z
		 M288.9,54.7c3.2-0.1,5.9-2.9,5.8-6.1c-0.1-3.3-2.9-5.9-6.1-5.8c-3.3,0.1-5.9,2.9-5.8,6.1C282.9,52.1,285.6,54.8,288.9,54.7z"/>
</g>
</svg>
