<?xml version="1.0" encoding="utf-8"?>
<!-- Generator: Adobe Illustrator 21.0.2, SVG Export Plug-In . SVG Version: 6.00 Build 0)  -->
<svg version="1.1" id="Layer_1" xmlns="http://www.w3.org/2000/svg" xmlns:xlink="http://www.w3.org/1999/xlink" x="0px" y="0px"
	 viewBox="0 0 356 354" style="enable-background:new 0 0 356 354;" xml:space="preserve">
<g>
	<path d="M177.4,347.4c-37.5,0-75,0.1-112.5,0c-26.3,0-48.3-16.1-55.3-40.6C7.9,301.1,7.2,295,7.2,289C7,214.2,7,139.3,7.1,64.4
		C7.1,35,25.9,12.2,54.5,6.9c3.5-0.7,7.2-0.8,10.8-0.8c75,0,150-0.1,225,0c29.3,0,52.2,18.9,57.4,47.5c0.7,3.7,0.8,7.5,0.8,11.2
		c0,74.6,0.1,149.2,0,223.8c0,29.8-18.7,52.6-47.4,57.9c-3.8,0.7-7.7,0.8-11.6,0.8C252.1,347.4,214.7,347.4,177.4,347.4z
		 M325.6,176.7c0-37,0-74,0-111c0-2.9,0-5.8-0.5-8.6c-3.2-17.1-16.7-28.2-34.5-28.2c-75.2-0.1-150.5,0-225.7,0
		c-2.2,0-4.5,0.1-6.7,0.5C41,32.5,29.9,46.2,29.9,64.3c0,75,0,150,0,224.9c0,2.4,0.1,4.8,0.5,7.1c3.2,16.9,16.8,28.2,34.2,28.2
		c75.5,0.1,151,0,226.4,0c1.9,0,3.8-0.1,5.6-0.4c17.5-3,29-16.6,29-34.6C325.7,251.9,325.6,214.3,325.6,176.7z"/>
	<path d="M177.9,290.5c-49.9,0.2-90.8-40.6-91.1-90.7c-0.2-50.1,40.3-91.1,90.3-91.3c50.4-0.2,91.2,40.3,91.5,90.6
		C268.9,249.3,228.2,290.3,177.9,290.5z M177.6,267.7c37.7,0.1,68.3-30.4,68.4-68c0.1-37.8-30.6-68.6-68.3-68.5
		c-37.4,0-68.1,30.6-68.2,67.9C109.4,237,139.8,267.6,177.6,267.7z"/>
	<path d="M75.3,63.2c-0.1,6.3-5.4,11.5-11.6,11.3c-6.1-0.2-11.2-5.3-11.2-11.4c0-6.2,5.3-11.5,11.4-11.5
		C70.2,51.6,75.3,56.9,75.3,63.2z"/>
	<path d="M98.2,63.1c-0.1-6.3,5-11.5,11.3-11.6c6.3,0,11.4,5.1,11.4,11.4c0,6.2-4.9,11.2-11.1,11.3C103.4,74.4,98.2,69.4,98.2,63.1z
		"/>
	<path d="M166.3,188.1c0-3.8-0.1-7.3,0-10.8c0.1-7,4.8-11.9,11.2-11.9c6.7,0,11.4,4.9,11.5,12.1c0,3.4,0,6.7,0,10.6
		c3.5,0,6.9,0,10.2,0c7.5,0.1,12.6,4.7,12.6,11.4c0,6.7-5.1,11.4-12.5,11.5c-3.2,0.1-6.5,0-10.3,0c0,3.7,0,7.1,0,10.6
		c-0.1,7.1-4.8,12.2-11.4,12.2c-6.5,0-11.1-4.9-11.3-11.9c-0.1-3.5,0-6.9,0-10.8c-3.8,0-7.1,0.1-10.5,0c-7.3-0.2-12.6-5.1-12.5-11.7
		c0.1-6.5,5.3-11.2,12.5-11.3C159.2,188.1,162.5,188.1,166.3,188.1z"/>
</g>
</svg>
