<?xml version="1.0" encoding="utf-8"?>
<!-- Generator: Adobe Illustrator 21.0.2, SVG Export Plug-In . SVG Version: 6.00 Build 0)  -->
<svg version="1.1" id="Layer_1" xmlns="http://www.w3.org/2000/svg" xmlns:xlink="http://www.w3.org/1999/xlink" x="0px" y="0px"
	 viewBox="0 0 384 384" style="enable-background:new 0 0 384 384;" xml:space="preserve">
<g>
	<path d="M88.6,59.2c54.2-37.6,111.8-44.4,172.2-20.8c4.4-5.3,8-11.2,13-15.4c13.6-11.4,29.1-13.5,45.1-5.8
		c16,7.7,23.9,21.2,23.7,38.9c-0.1,9.6-3.9,18.5-9.2,26.2c-4.1,6-3.4,9.8,0.8,15.6c73.1,101.2,16.7,246-105.4,271.2
		C136,388.2,46.2,331.7,23.7,239.9c-9.1-37.1-5.9-73.4,8.8-108.6c1.1-2.6,0.9-4.4-0.6-6.8c-5.6-8.5-10.5-17.3-12.4-27.5
		c-3.9-21.9,11.5-43.8,33.4-47.6C65.9,47.2,75.6,49.9,88.6,59.2z M79.1,180.7c-0.8,5.7-0.5,10.2,4.2,14.3
		c6.5,5.5,11.8,12.2,18.3,17.8c5.6,4.8,7.7,10.2,7.3,17.6c-0.7,15.7,2.2,11-9.5,21.8c-6.6,6.1-10.3,12.4-8.7,21.3
		c0.7,4.1-1.1,7.1-4.1,9.9c-6.3,6-12.4,12.2-18.5,18.3c25,31.6,65.8,52.8,100.6,56.8c0-8.1-0.6-16.3,0.2-24.3
		c0.9-9.2-1.3-16.5-9.1-21.9c-2.6-1.8-3.2-4.5-3.1-7.6c0.2-5.2,0-10.4,0-16c-1.5,0-2.6-0.2-3.7,0c-12.5,2.3-22.1-2.3-29.2-12.5
		c-1.5-2.1-2.7-4.7-3-7.2c-0.5-4.8-0.5-9.8,0-14.6c0.2-2.5,1.4-5.3,3-7.2c4.7-5.2,9.8-9.9,14.8-14.9c-8.7-17.8-8.7-35,5.1-49.7
		c15.9-16.9,34.8-18,54.6-7.1c1.7-6.9,0.2-12.6-5.7-16.4c-7.3-4.7-5.9-12-5.9-18.9c0-5.4,2.1-7.5,7.4-7.5c11,0,22,0,33,0
		c5.4,0,7.5,2.1,7.5,7.4c0,7.6-0.6,15.3,0.2,22.9c1.1,10.3-1.9,18.1-10.1,24.4c-3.6,2.8-6.4,6.5-12.3,5c6.6,14,4.7,27.1-1.7,40
		c4.8,4.7,9,9.8,14.1,13.8c8,6.3,10.2,14,10.2,24c0,10.5-1.6,19.1-10.6,25.4c-1.1,0.7-1.7,2.7-1.7,4.2c-0.2,5.9,0.2,11.8-0.2,17.6
		c-0.1,2.3-1.2,4.9-2.7,6.6c-4.1,4.7-8.8,8.9-13.2,13.3c-0.8,0.8-1.9,1.7-1.9,2.6c-0.2,6.7-0.1,13.4-0.1,20.1c1,0,1.5,0,2,0
		c32.2-2.9,61-14.4,86.4-34.4c0.9-0.7,1.5-2.5,1.5-3.8c0.1-9.2,0.2-18.5,0-27.7c0-1.6-0.9-3.6-2-4.8c-6.8-7-13.4-14.2-20.7-20.6
		c-5.6-4.9-7.9-10.3-7.3-17.7c0.6-6.6,1.7-13.9-0.6-19.6c-2.3-5.6-8.2-9.9-13.3-13.9c-8.1-6.4-10.4-14.2-10.3-24.4
		c0.1-10.3,1.6-18.8,10.4-25c1.1-0.8,1.8-2.9,1.8-4.5c0.2-8.5,0.2-17,0-25.5c0-1.6-0.9-3.6-2-4.8c-7.4-7.6-14.9-15.1-22.5-22.5
		c-1.1-1.1-3-1.8-4.5-1.9c-7.9-0.2-15.8,0.1-23.6-0.2c-2.1-0.1-4.7-1.1-6.3-2.5c-7.6-7.2-15-14.7-22.3-22.3
		c-1.5-1.5-2.5-4.1-2.6-6.3c-0.3-6.4-0.1-12.7-0.1-19.1c0-6.5,0-13,0-19.8c-17.4,2.5-33.5,7.7-48.4,15.3c2,1.3,4.2,2.3,5.8,3.8
		c5.3,5,10.5,10,15.3,15.4c1.7,1.8,2.9,4.7,3,7.2c0.4,6.9,0.4,13.8,0,20.6c-0.1,2.5-1.3,5.4-3,7.2c-6,6.5-12.5,12.6-18.7,19
		c-1.2,1.3-2,3.4-2.1,5.1c-0.3,5.7,0.1,11.5-0.2,17.2c-0.1,2.2-1.1,4.7-2.6,6.3c-7.2,7.6-14.7,15-22.3,22.3
		c-1.5,1.5-4.1,2.3-6.3,2.5C86.1,181.1,82.6,180.7,79.1,180.7z M180.8,37.6c0,12.4,0,24.7,0.1,36.9c0,1.2,0.9,2.6,1.7,3.5
		c5.5,5.6,11,11.2,16.7,16.7c1.2,1.1,3.2,2,4.8,2c7.7,0.2,15.5-0.1,23.2,0.2c2.3,0.1,5,1.1,6.6,2.7c9.5,9.2,18.9,18.6,28.1,28.1
		c1.5,1.5,2.6,4.1,2.6,6.2c0.3,11.2,0.2,22.5,0,33.7c0,2-0.9,4.9-2.4,5.9c-8.7,6.1-11,14.4-9.5,24.4c0.1,0.5-0.1,1.1,0,1.5
		c0.6,1.6,0.9,3.6,2.1,4.8c6.2,6.5,12.8,12.6,18.9,19.2c1.6,1.7,2.7,4.5,2.8,6.9c0.4,7.6,0,15.2,0.2,22.9c0.1,1.8,0.9,3.9,2.1,5.1
		c6.1,6.4,12.5,12.6,18.8,18.9c11,11.2,8.8,6.2,9,21.7c0.1,4.6,0,9.3,0,14.5c57-55.6,64.7-148.1,14.5-212.8c-0.8,1-1.6,1.9-2.4,2.8
		c-4.4,5-8.7,10-13.2,14.9c-3.2,3.4-6.5,3.4-9.8,0c-11.2-11.6-21.5-24-29.2-38.3c-4.4-8.1-8.1-16.4-7.8-25.9
		c0.1-2.6-0.8-3.7-3.1-4.7c-14.6-6.1-29.8-10.4-45.5-11.7C200.6,37,190.8,37.6,180.8,37.6z M96.2,68.2c9.6,16,7.6,31.1-0.3,46
		c-7.7,14.6-18.1,27.2-29.3,39.2c-4.3,4.6-7.3,4.6-11.6-0.1c-4.2-4.6-8.3-9.2-12.5-13.9c-21.3,39.1-11.3,121.7,18.5,152.4
		c0.6-0.6,1.3-1.1,1.9-1.7c5.1-5,10.1-10,15.1-15.1c0.7-0.7,1.1-2.3,0.9-3.4c-2-11.4,2.2-20.1,11.4-26.7c0.1-0.1,0.2-0.2,0.3-0.3
		c5.4-3.8,7.4-8.9,6.6-15.4c-0.3-2.7-0.8-4.8-2.9-6.8c-8.2-7.9-16.3-15.9-24.1-24.1c-1.7-1.8-2.8-4.7-3-7.2
		c-0.5-5.2-0.2-10.5-0.1-15.7c0.1-4.2,2.3-6.5,6.5-6.6c4.1-0.1,8.3,0.1,12.4-0.1c1.5-0.1,3.4-0.8,4.5-1.9c5.7-5.4,11.3-11,16.7-16.7
		c1.1-1.1,1.8-3,1.8-4.5c0.2-5.9-0.1-11.8,0.2-17.6c0.1-2.2,1.2-4.6,2.6-6.3c3.4-4,7-8,11.1-11.1c8.5-6.4,11.8-14.3,10.3-24.8
		c-0.4-3.1-0.9-5.6-3.3-7.8c-4-3.6-7.1-9-11.7-10.7c-4.9-1.9-11.1-0.6-16.7-0.4C99.7,66.8,98.2,67.6,96.2,68.2z M192.8,360.4
		c0-6.5,0.3-12.9-0.1-19.2c-0.3-4.9,1.2-8.6,4.9-11.8c4.6-4.1,10.4-7.9,12.5-13.2c2.2-5.4,0.8-12.3,0.6-18.5c-0.1-3.8,0.8-7,3.9-9.2
		c7.1-4.9,8.9-11.6,8.4-20c-0.3-5.3-1.4-9.1-5.4-12.6c-4.5-3.9-8.5-8.3-12.2-12.1c-8.4,10.1-16.4,19.8-24.6,29.3
		c-4.4,5.1-7.6,5.1-12.1-0.1c-7.4-8.6-14.4-17.6-21.5-26.4c-0.8-1-1.5-2.1-2.5-3.4c-3.8,3.8-7.3,7.2-10.6,10.7
		c-0.6,0.7-1.2,1.6-1.3,2.5c-0.8,7.1-0.5,14,6.6,18.3c1.4,0.8,3,1.8,4.5,1.8c5.7,0.2,11.5,0.1,17.2,0.1c5.6,0,7.6,2.1,7.6,7.8
		c0,2.2,0.3,4.5,0,6.7c-1.4,9.2,1.2,16.5,8.9,21.9c2.6,1.8,3.2,4.5,3.2,7.6c-0.1,11.7,0,23.5,0,35.2c0,1.3,0,2.7,0,4.3
		C184.9,360.4,188.6,360.4,192.8,360.4z M300.8,106.1c3-3.6,5.8-6.7,8.5-10c8.1-10.2,16-20.5,20-33.1c5.9-18.5-7.9-37.4-27.2-38.2
		c-20.7-0.8-38.5,20.4-28.1,42.9C280.5,81.9,290.1,94,300.8,106.1z M60.7,142.1c9.7-11,18.7-21.7,24.8-34.4c2.5-5.2,4.8-11,5-16.6
		c0.5-12.8-5.9-22.2-17.5-27.6c-10.7-5.1-23.8-3-32.4,5.2c-9.2,8.8-12.3,19.5-7.8,31.7C38.6,116.4,49.5,129.1,60.7,142.1z
		 M174.8,262.1c3-3.6,5.8-6.7,8.5-10c8.1-10.2,16-20.5,20-33.1c5.9-18.5-7.9-37.4-27.2-38.2c-20.7-0.8-38.5,20.4-28.1,42.9
		C154.5,237.9,164.1,250,174.8,262.1z M198.1,145.1c0.9,1.9,1.4,3.6,2.5,4.9c1.4,1.8,3,3.4,4.8,4.8c4.3,3.4,6.1,7.5,5.5,13
		c-0.4,4.2-0.1,8.5-0.1,13.8c2.2-1,3.8-1.5,5.2-2.5c5.5-3.9,8-9.1,6.9-16c-0.4-2.8-0.1-5.7-0.1-8.6c0-3.2,0-6.4,0-9.7
		c-7.8,0-15.1,0-22.3,0C200,144.8,199.5,144.9,198.1,145.1z"/>
	<path d="M318.7,54.8c0,9.8-8.1,17.9-17.9,17.9c-10,0-18.1-8.1-18.1-18.1c0-9.8,8.1-17.8,17.9-17.9
		C310.6,36.7,318.7,44.8,318.7,54.8z M306.7,54.9c0.1-3.2-2.5-6-5.7-6.1c-3.2-0.1-6,2.4-6.2,5.6c-0.2,3.4,2.5,6.3,5.9,6.3
		C303.9,60.8,306.6,58.1,306.7,54.9z"/>
	<path d="M78.7,91c-0.1,9.7-8.2,17.8-18,17.8c-10-0.1-18.1-8.2-18-18.2c0.1-9.8,8.2-17.8,18-17.8C70.7,72.8,78.8,81,78.7,91z
		 M60.8,84.8c-3.2,0-5.9,2.6-6,5.9c-0.1,3.4,2.8,6.2,6.1,6.1c3.2-0.1,5.8-2.8,5.8-6C66.7,87.5,64,84.8,60.8,84.8z"/>
	<path d="M174.7,228.7c-10-0.1-18-8.3-17.9-18.3c0.1-9.8,8.3-17.7,18.1-17.7c9.9,0,18,8.2,17.9,18.3
		C192.6,220.8,184.4,228.8,174.7,228.7z M174.7,216.7c3.2,0,5.9-2.6,6-5.9c0.1-3.2-2.6-6-5.8-6.1c-3.4-0.1-6.2,2.7-6.2,6.1
		C168.8,214.1,171.5,216.7,174.7,216.7z"/>
</g>
</svg>
