<?xml version="1.0" encoding="utf-8"?>
<!-- Generator: Adobe Illustrator 21.0.2, SVG Export Plug-In . SVG Version: 6.00 Build 0)  -->
<svg version="1.1" id="Layer_1" xmlns="http://www.w3.org/2000/svg" xmlns:xlink="http://www.w3.org/1999/xlink" x="0px" y="0px"
	 viewBox="0 0 384 384" style="enable-background:new 0 0 384 384;" xml:space="preserve">
<g>
	<path d="M198.8,0.7c3.1,0.7,6.3,1.4,9.4,2.3c12.2,3.6,21.9,10.7,29.2,21.1c2.8,4,2.6,7.5-0.4,9.5c-3,2-5.8,0.9-8.7-3
		c-11.1-15-26-21.1-44.3-17.6c-17,3.2-30.1,17-33.5,34.4c-2.8,14.5,3.1,31.5,14,39.7c0.2-1,0.5-2,0.7-2.9
		c1.6-7.7,8.4-13.5,16.2-13.6c7.2-0.1,14.5-0.1,21.7,0c9.5,0,16,5.5,17.8,14.9c0.1,0.5,0.3,0.9,0.6,2.1c2-2.1,3.7-3.8,5.2-5.7
		c6.2-8.1,9.3-17.2,9.4-27.5c0-3.8,2.5-6.2,5.7-6.1c3.1,0.1,5.2,2.5,5.4,6c0,0.7,0,1.5,0,2.2c-0.6,16.3-7.2,29.7-19.5,40.2
		c-17.5,14.9-42.4,16.9-62.3,5.2c-20.1-11.7-30.2-34.5-25.8-57.7c4.1-21.8,22.5-39.4,44.8-42.8c0.8-0.1,1.7-0.5,2.5-0.7
		C190.8,0.8,194.8,0.8,198.8,0.7z M193.1,81.8c-3.7,0-7.5-0.1-11.2,0c-3.7,0.1-5.7,2.1-6,5.8c-0.1,1.4,0.1,2.8-0.1,4.1
		c-0.3,2.4,0.7,3.6,3,4.3c7.9,2.5,15.8,3.1,23.9,1c7.3-1.9,7.6-2.1,6.8-9.5c-0.4-3.7-2.3-5.6-6-5.7
		C200.1,81.7,196.6,81.8,193.1,81.8z"/>
	<path d="M186.8,384.8c-2.7-0.6-5.3-1.1-8-1.8c-26.8-7.2-44.1-33.6-39.8-60.7c4.5-28.1,29.3-48.3,57.5-46
		c21.9,1.8,37.5,13.2,46.5,33.3c2.2,4.9,1.3,8.2-2.1,9.6c-3.5,1.5-6.1-0.2-8.3-5.2c-7.1-16-19.6-25.3-37-26.4
		c-17.4-1.2-31.1,6.4-40.1,21.4c-9.9,16.5-7,38.5,6.6,51.8c0.6,0.6,1.3,1,2.2,1.8c0.5-2,0.8-3.7,1.4-5.3c2.5-6.9,8.7-11.3,16-11.3
		c7-0.1,14,0,21,0c9.8,0,16.1,5.3,18,15c0.1,0.5,0.3,0.9,0.6,1.7c7-6.2,11.2-13.6,13.4-22.3c0.5-1.7,1.2-4,2.5-4.7
		c1.7-0.9,4.4-1,6.2-0.3c2.7,1,3,3.8,2.4,6.4c-1.7,7.8-4.8,15-9.7,21.3c-9.1,11.8-21,19-35.8,21.2c-0.6,0.1-1.1,0.4-1.7,0.6
		C194.8,384.8,190.8,384.8,186.8,384.8z M192.7,357c-3.6,0-7.2-0.1-10.8,0c-3.7,0.1-5.7,2-6,5.8c-0.1,1.4,0.1,2.8-0.1,4.1
		c-0.3,2.4,0.7,3.6,3,4.3c7.9,2.5,15.8,3.1,23.9,1.1c7.4-1.9,7.5-2.1,6.9-9.5c-0.3-3.7-2.3-5.6-6-5.8
		C199.9,356.9,196.3,357,192.7,357z"/>
	<path d="M145.1,140.6c2.5,1.2,4.8,2.1,6.7,3.4c1.9,1.3,3.3,1.2,5.3-0.2c3.6-2.5,7.4-4.6,11.3-6.5c2-1,2.9-2,2.7-4.2
		c-0.2-1.2-0.1-2.5,0-3.7c0.2-3.9,2.5-6.4,6.4-6.4c10.2-0.1,20.5-0.1,30.7,0c4.1,0,6.7,2.7,6.3,7.1c-0.4,4.3,0.8,6.8,5.1,8.3
		c3.2,1.1,6.2,3.3,8.9,5.4c1.9,1.5,3.4,1.6,5.2,0.1c0.8-0.6,1.7-1,2.6-1.5c4.1-2.1,7.2-1.4,9.6,2.6c4.9,8.4,9.8,16.8,14.6,25.3
		c2.4,4.3,1.7,7.8-2.8,10c-4,1.9-5.3,4.2-4.4,8.7c0.6,3.3,0.1,7-0.3,10.4c-0.2,2,0,3.3,2,4.2c1.3,0.5,2.4,1.3,3.6,2.1
		c3.3,2.2,4.3,5.4,2.4,8.8c-5,8.9-10.1,17.8-15.4,26.6c-2.1,3.6-5.7,4.5-9.4,1.9c-3.8-2.6-6.5-2.6-10.1,0.4c-2.6,2.2-6,3.6-9.1,5
		c-1.9,0.8-2.8,1.8-2.5,3.9c0.2,1.4,0.1,2.8,0,4.1c-0.3,3.7-2.5,6.1-6.2,6.2c-10.4,0.1-20.7,0.1-31.1,0c-3.9,0-6.4-2.7-6.1-7
		c0.3-4.4-0.8-7.1-5.3-8.6c-3.2-1.1-6.2-3.3-8.9-5.4c-1.9-1.4-3.2-1.4-4.9-0.1c-1,0.7-2.1,1.3-3.2,1.9c-3.5,1.7-6.8,1-8.8-2.4
		c-5.2-8.8-10.3-17.7-15.3-26.6c-2-3.5-1-7.1,2.8-8.8c4.5-2,5.8-4.7,4.9-9.5c-0.6-3.2-0.1-6.7,0.3-10.1c0.3-2.1-0.3-3.3-2.2-4.1
		c-1.3-0.5-2.4-1.3-3.6-2.1c-3.1-2.1-4.1-5.2-2.3-8.5c5.1-9,10.2-18,15.6-26.9C141.1,142.8,143.3,142,145.1,140.6z M182.2,134.2
		c0,1.2,0,2,0,2.9c-0.1,6.1-1,6.7-6.6,9.3c-5.3,2.5-10.3,5.6-15.1,8.9c-4.1,2.8-5.8,3.2-10.2,0.8c-1-0.5-1.9-1-3.2-1.7
		c-3.5,6-6.9,11.9-10.4,18c1,0.7,1.6,1.2,2.4,1.6c5.3,3.2,5.6,4.1,4.9,10.3c-0.5,4.7-1.2,9.6-0.3,14.1c1.4,6.7,0.3,11.5-6.4,14.2
		c-0.2,0.1-0.2,0.4-0.4,0.9c3.3,5.8,6.7,11.7,10.2,17.6c0.9-0.5,1.5-0.8,2-1.1c6-3.4,6.8-3.1,12.3,1c3.8,2.8,7.8,5.8,12.2,7.2
		c6.5,2.1,9.5,5.5,8.6,12.2c0,0.2,0.2,0.4,0.4,0.6c6.8,0,13.6,0,20.4,0c0.1-0.8,0.1-1.2,0.1-1.7c0.2-7.4,0.6-7.5,7.1-10.5
		c5-2.3,9.8-5.4,14.4-8.6c4.3-3,5.8-3.4,10.5-0.8c0.9,0.5,1.9,1,3.1,1.6c3.5-6.1,6.9-12,10.3-18c-1.1-0.7-1.8-1.2-2.5-1.6
		c-5.2-3.1-5.4-4.1-4.8-10c0.5-4.3,1.2-8.8,0.5-13c-1.2-6.9-2-13.1,6.9-15.5c-0.7-1.4-1.1-2.3-1.6-3.1c-2.9-5.1-5.9-10.1-8.9-15.3
		c-0.9,0.5-1.6,0.8-2.2,1.2c-5.8,3.2-6.8,2.9-12-1c-3.7-2.7-7.5-5.7-11.8-7.1c-6.6-2.1-10.1-5.5-9.2-12.6c0-0.2-0.3-0.4-0.5-0.6
		C196.1,134.2,189.4,134.2,182.2,134.2z"/>
	<path d="M257.6,123.9c0-30,24.4-54.3,54.4-54.3c30.1,0,54.3,24.3,54.3,54.3c-0.1,30-24.4,54.4-54.4,54.4
		C282,178.3,257.5,153.9,257.6,123.9z M283.5,155.8c0.2-0.6,0.4-1.2,0.5-1.8c1.9-9.3,8.1-14.6,17.6-14.6c7.2-0.1,14.5-0.1,21.7,0
		c8.3,0.2,15,6,16.5,14.2c0.1,0.8,0.4,1.5,0.7,2.4c13.3-10.9,18.1-30.7,11.7-47.4c-6.8-17.7-23.6-28.4-43.4-27.6
		c-17.3,0.8-33.3,13.7-38.2,31C266,128.2,271.6,147.6,283.5,155.8z M311.9,150.6c-3.6,0-7.2-0.1-10.8,0c-3.8,0.1-5.7,2-6,5.8
		c-0.1,1.5,0.1,3-0.1,4.5c-0.2,2.1,0.7,3.1,2.7,3.7c8,2.7,16,3.2,24.3,1.2c7.1-1.8,7.3-1.9,6.8-9.2c-0.2-4-2.1-5.9-6.1-6
		C319.1,150.5,315.5,150.6,311.9,150.6z"/>
	<path d="M19.3,124c0-30.1,24.2-54.3,54.2-54.4c30,0,54.4,24.2,54.5,54.2c0,29.9-24.4,54.5-54.3,54.5C43.7,178.4,19.3,154,19.3,124z
		 M102,155.7c12.7-8.6,18.1-30.1,11.9-46.9c-6.9-18.5-25.7-30-45.4-27.7c-19.3,2.2-35.3,18-37.7,37.2c-1.8,14.6,5.8,33.9,14.5,37.2
		c1.8-10.8,8-16.1,19-16.1c6.9,0,13.7-0.1,20.6,0c7.4,0.1,12.4,4,15.4,10.6C101.2,151.8,101.5,153.8,102,155.7z M73.7,150.6
		c-3.7,0-7.5-0.1-11.2,0c-3.6,0.1-5.5,2-5.7,5.6c-0.1,1.6-0.4,3.3,0,4.8c0.3,1.3,1.3,2.9,2.4,3.3c8,3.2,16.3,3.6,24.5,1.3
		c8.1-2.2,6.7-1,6.6-9.2c0-4-2.2-5.8-6.2-5.8C80.7,150.6,77.2,150.6,73.7,150.6z"/>
	<path d="M366.2,261.8c-0.1,30.1-24.4,54.2-54.5,54.1c-30-0.1-54.4-24.7-54.2-54.5c0.2-30,24.8-54.4,54.6-54.2
		C342.1,207.3,366.4,231.8,366.2,261.8z M340.4,293.5c13.1-10.6,18.1-30.4,11.9-47c-6.4-17.1-23.4-28.7-41.2-28.1
		c-19.1,0.6-35.3,13-40.5,31.1c-4.7,16.1,1,35.6,12.8,43.8c0.2-0.6,0.5-1.2,0.6-1.7c2.1-9.6,8.4-14.7,18.3-14.7c5.5,0,11,0,16.5,0
		C332,276.9,337.2,280.8,340.4,293.5z M312,288.1c-3.2,0-6.5,0-9.7,0c-5.2,0.1-7.1,2-7.2,7.3c0,0.7,0.1,1.5,0,2.2
		c-0.5,2.9,1,4.1,3.6,4.9c7.8,2.4,15.7,2.7,23.6,0.8c6.8-1.7,6.8-1.7,6.5-8.6c-0.2-4.6-2.1-6.5-6.7-6.6
		C318.7,288.1,315.3,288.1,312,288.1z"/>
	<path d="M44.6,293.3c1.5-3.3,2.5-6.7,4.4-9.5c3.2-4.7,8.1-6.9,13.8-6.9c7,0,14-0.1,21,0c9.3,0.1,15.7,5.5,17.6,14.7
		c0.1,0.6,0.4,1.1,0.7,2.2c8-7.4,12.9-16,14-26.5c3.8-34.5-29.1-58.5-61.1-44.7c-4.1,1.8-7.1,1-8.6-2.3c-1.5-3.2-0.1-6.2,3.9-8
		c18.7-8.3,36.9-7.1,53.7,4.5c16.8,11.6,24.9,28.1,23.4,48.5c-1.9,26.8-23,48.3-48.9,50.3c-27.5,2.2-51.6-15-58-41.6
		c-3.3-13.8-1.3-27,5.6-39.4c2.5-4.4,5.5-5.6,8.7-3.7c3,1.8,3.4,5,1.1,9.2c-9.4,17.1-6.9,37.7,6.3,51.3
		C43.2,292.1,44.1,292.8,44.6,293.3z M73.1,305.2c0-0.2,0.1-0.4,0.1-0.6c1.7-0.1,3.5-0.1,5.2-0.3c1.8-0.2,3.7-0.6,5.5-1.1
		c6.9-1.7,7-1.9,6.5-9c-0.3-3.9-2.3-6.1-6.1-6.1c-7.2-0.1-14.5-0.1-21.7,0c-3.7,0.1-5.7,2.2-5.9,5.9c-0.1,1.6-0.3,3.3,0.1,4.8
		c0.3,1.2,1.2,2.9,2.2,3.1C63.7,303.3,68.4,304.2,73.1,305.2z"/>
	<path d="M192.9,60.3c-10.3,0.1-18.7-8.2-18.9-18.4c-0.1-10.4,8.2-18.9,18.6-19c10.3-0.1,18.7,8.2,18.9,18.4
		C211.6,51.7,203.3,60.2,192.9,60.3z M200.2,41.5c-0.1-4.1-3.4-7.3-7.5-7.3c-4.1,0-7.4,3.3-7.4,7.3c0,4.2,3.4,7.6,7.7,7.5
		C197.1,48.9,200.3,45.6,200.2,41.5z"/>
	<path d="M73.4,229.4c10.5,0,18.8,8.2,18.8,18.6c0,10.3-8.5,18.9-18.8,18.8c-10.1,0-18.6-8.5-18.7-18.6
		C54.7,237.9,63,229.4,73.4,229.4z M73.6,240.7c-4.1,0-7.5,3.2-7.5,7.3c-0.1,4.1,3.5,7.7,7.6,7.6c4-0.1,7.3-3.5,7.3-7.6
		C81,243.9,77.7,240.7,73.6,240.7z"/>
	<path d="M211.5,316.8c0,10.4-8.5,18.8-18.9,18.7c-10.3-0.1-18.6-8.4-18.6-18.7c0-10.4,8.5-18.8,18.9-18.7
		C203.2,298.3,211.5,306.6,211.5,316.8z M192.9,324.3c4.1-0.1,7.4-3.4,7.4-7.4c0-4.2-3.5-7.5-7.8-7.4c-4.1,0.2-7.3,3.5-7.2,7.6
		C185.4,321.2,188.7,324.3,192.9,324.3z"/>
	<path d="M157.2,192.2c0.5-20.4,17.3-36.1,37.5-34.9c20.1,1.1,35.2,18.3,33.5,38.4c-0.4,4.7-2.6,7.1-6.1,6.8c-3.6-0.3-5.4-3-5.1-7.7
		c0.8-12.9-7.8-24.1-19.9-26c-12.8-2-24.7,5.4-27.8,17.8c-2.5,9.8,0.2,18.4,8,24.9c7.8,6.5,16.7,7.3,26,3.2
		c5.5-2.4,8.3-2.2,10.1,1.2c1.8,3.6,0.1,6.5-5.3,9.1C184.3,236.2,156.6,218.4,157.2,192.2z"/>
	<path d="M311.8,129.1c-10.4,0-18.7-8.4-18.6-18.9c0.1-10.2,8.4-18.5,18.6-18.6c10.2-0.1,18.9,8.5,18.8,18.8
		C330.7,120.8,322.3,129.2,311.8,129.1z M312,117.8c4.1,0,7.4-3.3,7.4-7.3c0-4-3.4-7.5-7.4-7.5c-4.1-0.1-7.7,3.5-7.6,7.6
		C304.6,114.7,307.8,117.9,312,117.8z"/>
	<path d="M73.6,129.1c-10.4,0-18.8-8.3-18.8-18.7c0-10.3,8.6-18.8,18.9-18.7c10.2,0.1,18.5,8.4,18.6,18.6
		C92.3,120.7,84.1,129.1,73.6,129.1z M73.4,117.8c4.2,0.1,7.5-3,7.7-7.1c0.2-4.2-3.3-7.8-7.4-7.8c-4,0-7.4,3.4-7.5,7.4
		C66,114.3,69.3,117.7,73.4,117.8z"/>
	<path d="M311.8,229.4c10.5-0.1,18.9,8.2,18.9,18.6c0,10.3-8.5,18.9-18.8,18.9c-10.2,0-18.6-8.4-18.7-18.5
		C293.1,237.9,301.3,229.5,311.8,229.4z M311.9,240.7c-4.1,0-7.4,3.3-7.4,7.4c0,4,3.3,7.4,7.3,7.5c4.1,0.1,7.7-3.6,7.6-7.7
		C319.3,243.9,316,240.6,311.9,240.7z"/>
</g>
</svg>
