<?xml version="1.0" encoding="utf-8"?>
<!-- Generator: Adobe Illustrator 21.0.2, SVG Export Plug-In . SVG Version: 6.00 Build 0)  -->
<svg version="1.1" id="Layer_1" xmlns="http://www.w3.org/2000/svg" xmlns:xlink="http://www.w3.org/1999/xlink" x="0px" y="0px"
	 viewBox="0 0 512 512" style="enable-background:new 0 0 512 512;" xml:space="preserve">
<g>
	<path d="M1,71c2.7-10,7.2-18.9,17.1-23.3c4.9-2.2,10.5-3.8,15.8-3.8c52.2-0.3,104.3-0.2,156.5-0.2c0.7,0,1.3,0.1,2.3,0.2
		c0,6.8,0,13.5,0,21c-1.8,0-3.7,0-5.6,0c-50,0-100,0-150,0C26,65,22.3,68.6,22.3,79.6c0,104,0,208,0,312c0,11.2,3.5,14.7,14.5,14.7
		c146.8,0,293.6,0,440.4,0c11,0,14.5-3.6,14.5-14.8c0-32,0-64,0-96c0-2,0-3.9,0-6.5c7.4,0,14.3,0,21.3,0c0,37.3,0,74.7,0,112
		c-2.1,4.5-3.5,9.4-6.3,13.4c-7,10-17.3,13.4-29.1,13.4c-43-0.1-85.9,0-128.9,0c-2,0-3.9,0-6.1,0c0,7.3,0,14.1,0,21.3
		c9.7,0,19.2,0,28.6,0c10,0,13.8,3.9,13.8,14c0,11.8-0.2,23.7,0.1,35.5c0.2,6.7-1.9,11.6-8.1,14.5c-80,0-160,0-240,0
		c-6.2-2.9-8.2-7.9-8.1-14.5c0.3-11.7,0.1-23.3,0.1-35c0-10.8,3.6-14.5,14.3-14.5c9.3,0,18.6,0,28.1,0c0-7.2,0-13.9,0-21.3
		c-2.2,0-4.2,0-6.1,0c-42.8,0-85.6,0.2-128.4-0.2c-6.3,0-12.9-1.5-18.7-3.9C8.4,419.6,4,410.6,1,401C1,291,1,181,1,71z M363.5,470.6
		c-71.3,0-142,0-212.8,0c0,7.1,0,13.8,0,20.6c71.2,0,142,0,212.8,0C363.5,484.2,363.5,477.6,363.5,470.6z M193.2,448.7
		c42.8,0,85.2,0,127.5,0c0-7.1,0-13.8,0-20.5c-42.7,0-85,0-127.5,0C193.2,435.1,193.2,441.7,193.2,448.7z"/>
	<path d="M513,160c-2,10.4-3.1,21-6,31.2c-10,35.7-31,63.7-61.9,84.2c-25.8,17.1-54.4,24.4-85.1,24.4c-61.3,0-122.6,0-183.9,0
		c-2.2,0-4.4,0-6.4-0.5c-8-1.7-11.1-10-6.3-16.6c1.1-1.5,2.4-2.7,3.7-4c14.7-14.7,29.5-29.4,44.1-44.3c1.7-1.8,3-4.8,3-7.3
		c0.2-24.3,0.1-48.6,0.1-73c0-30.7,7.2-59.4,24.4-85.1c24.5-36.6,58.5-58.8,102.1-66c4.4-0.7,8.9-1.3,13.3-2c6.7,0,13.3,0,20,0
		c0.8,0.2,1.5,0.6,2.3,0.7c24.7,2,47.5,9.7,68.2,23.3c31.3,20.5,52.5,48.7,62.5,84.8c2.8,9.9,4,20.2,5.9,30.2
		C513,146.7,513,153.3,513,160z M197.8,278c2.2,0.2,3.2,0.3,4.1,0.3c53.7,0,107.3,0,161,0c27.3,0,52.5-7.3,74.5-23.5
		c38-27.9,56.2-65.7,53.7-112.9c-1.4-27.9-11.3-52.9-29.6-73.7C426.2,28.2,382,14.4,330.3,27c-52.5,12.8-92.9,63.1-94.2,117
		c-0.7,29-0.4,58-0.3,87c0,6.3-1.9,11.1-6.5,15.5C218.9,256.5,208.8,266.9,197.8,278z"/>
	<path d="M193,86.5c0,6.1,0,11.7,0,17.3c0,1.1-0.2,2.3-0.3,3.9c-2.2,0-4.1,0-6.1,0c-35.7,0-71.3,0-107,0c-11.3,0-14.6,3.4-14.6,14.6
		c0,75.5,0,151,0,226.5c0,11.4,3.5,14.9,14.9,14.9c118,0,236,0,353.9,0c11.7,0,15.1-3.4,15.2-15.2c0-19.6,0-39.3,0-59.2
		c7.1,0,13.8,0,21,0c0.1,1.6,0.3,3.2,0.3,4.8c0,18.7,0.1,37.3,0,56c-0.1,21.8-13.2,34.9-34.8,34.9c-119,0-238,0-356.9,0
		c-21.4,0-34.7-13.1-34.7-34.5c-0.1-76.7-0.1-153.3,0-230c0-20.6,13-34,33.5-34.2c37.5-0.2,75-0.1,112.5-0.1
		C190.6,86.3,191.4,86.4,193,86.5z"/>
	<path d="M107,182c-6.6,0-13.3,0-21.2,0c0.6-9.8-0.1-19.6,1.9-28.9c3-13.6,12.6-21.9,26.5-23.6c8.2-1,16.6-0.2,25.2-0.2
		c0,6.7,0,13.5,0,20.9c-5.9,0-11.7,0-17.5,0c-10.4,0-14.1,3.7-14.2,14.1c0,5.5-0.1,11-0.1,16.5C107.6,181.1,107.3,181.4,107,182z"/>
	<path d="M107.5,204c0,7.2,0,13.8,0,20.7c-7,0-13.7,0-20.8,0c0-6.8,0-13.6,0-20.7C93.6,204,100.4,204,107.5,204z"/>
	<path d="M352.8,204c0-21.8,0-42.7,0-64.2c-7,0-13.7,0-20.7,0c0-7.3,0-14.1,0-21c11.2,0,22.4-0.4,33.4,0.2c5.8,0.3,8.7,4.7,8.8,11.4
		c0.1,12.5,0,25,0,37.5c0,10.2,0,20.3,0,30.5c0,1.6,0.2,3.2,0.3,5.4c7.1,0,13.8,0,20.9,0c0,7.3,0,14,0,21.1c-21.1,0-42,0-63.3,0
		c0-6.7,0-13.4,0-20.7C338.8,204,345.5,204,352.8,204z"/>
	<path d="M353.4,76c6.8,0,13.6,0,20.6,0c0,6.9,0,13.6,0,20.7c-6.8,0-13.5,0-20.6,0C353.4,89.9,353.4,83.1,353.4,76z"/>
</g>
</svg>
