<?xml version="1.0" encoding="utf-8"?>
<!-- Generator: Adobe Illustrator 21.0.2, SVG Export Plug-In . SVG Version: 6.00 Build 0)  -->
<svg version="1.1" id="Layer_1" xmlns="http://www.w3.org/2000/svg" xmlns:xlink="http://www.w3.org/1999/xlink" x="0px" y="0px"
	 viewBox="0 0 20.8 20.8" style="enable-background:new 0 0 20.8 20.8;" xml:space="preserve">
<style type="text/css">
	.st0{fill:#FFFFFF;}
</style>
<g>
	<path d="M10.9,0c0.3,0,0.7,0.1,1,0.1c1.2,0.2,2.3,0.5,3.4,1.1c1.6,0.9,2.9,2.1,3.9,3.7c0.4,0.7,0.8,1.5,1.1,2.3c-0.6,0-1.1,0-1.6,0
		c0,0-0.1-0.1-0.1-0.1c-0.2-0.4-0.4-0.9-0.7-1.3c-0.1-0.1-0.1-0.2-0.3-0.2c-0.5,0-0.9,0-1.4,0c0.1,0.5,0.3,1,0.4,1.6
		c-0.6,0-1.1,0-1.6,0c-0.1-0.5-0.3-0.9-0.4-1.4c0-0.2-0.1-0.2-0.3-0.2c-2.5,0-5.1,0-7.6,0c-0.2,0-0.2,0.1-0.3,0.2
		C6.2,6.3,6.1,6.7,6,7.2c-0.5,0-1.1,0-1.6,0c0.1-0.5,0.3-1,0.4-1.6c-0.4,0-0.9,0-1.3,0C3.1,5.6,3,5.7,2.8,6C2.7,6.3,2.5,6.7,2.3,7.1
		c0,0.1-0.1,0.1-0.1,0.1c-0.5,0-1.1,0-1.6,0c0.2-0.5,0.4-1.1,0.7-1.6c1-1.9,2.5-3.4,4.4-4.4c1.1-0.6,2.4-1,3.6-1.1
		c0.2,0,0.5-0.1,0.7-0.1C10.3,0,10.6,0,10.9,0z M13.6,4C13.6,4,13.6,4,13.6,4c-0.5-0.8-1-1.5-1.8-2C11,1.6,10.2,1.5,9.3,1.9
		C8.7,2.2,8.2,2.6,7.8,3.1C7.6,3.4,7.4,3.7,7.2,4C9.4,4,11.5,4,13.6,4z M14.9,2.8C14.9,2.9,14.9,2.9,14.9,2.8
		c0.2,0.4,0.3,0.7,0.5,1.1c0,0,0.1,0.1,0.1,0.1c0.3,0,0.5,0,0.8,0c0,0,0,0,0-0.1C15.9,3.6,15.4,3.2,14.9,2.8z M4.4,4
		C4.4,4,4.5,4,4.4,4C4.7,4,5,4,5.3,4c0,0,0.1,0,0.1-0.1C5.6,3.6,5.8,3.2,6,2.9c0,0,0,0,0,0C5.4,3.2,4.9,3.6,4.4,4z"/>
	<path d="M14.9,13.6c0.5,0,1.1,0,1.6,0c-0.1,0.5-0.3,1-0.4,1.6c0.5,0,0.9,0,1.3,0c0.3,0,0.4-0.1,0.5-0.3c0.2-0.4,0.4-0.8,0.6-1.2
		c0-0.1,0.1-0.1,0.2-0.1c0.5,0,1,0,1.6,0c-0.9,3.1-4.1,6.7-8.9,7.1c-5.2,0.5-9.5-2.9-10.8-7.1c0.3,0,0.6,0,0.9,0
		c0.3,0,0.6-0.1,0.8,0c0.2,0.1,0.2,0.4,0.3,0.6c0.1,0.3,0.3,0.6,0.5,0.8c0,0,0.1,0.1,0.1,0.1c0.5,0,1,0,1.5,0c0,0,0,0,0,0
		c-0.1-0.5-0.2-1-0.4-1.6c0.6,0,1.1,0,1.6,0c0.1,0.5,0.3,0.9,0.4,1.4c0,0.1,0.1,0.2,0.3,0.2c2.5,0,5.1,0,7.6,0
		c0.2,0,0.2-0.1,0.3-0.2C14.6,14.6,14.7,14.1,14.9,13.6z M7.2,16.8c0.5,0.8,1.1,1.5,1.9,2c0.8,0.5,1.6,0.5,2.5,0.1
		c0.9-0.4,1.6-1.2,2.1-2.1c0,0,0,0,0,0C11.5,16.8,9.4,16.8,7.2,16.8z M14.9,18C14.9,18,14.9,18,14.9,18c0.5-0.3,1-0.7,1.5-1.1
		c0,0,0,0,0-0.1c-0.3,0-0.5,0-0.8,0c0,0-0.1,0-0.1,0.1C15.3,17.3,15.1,17.6,14.9,18z M5.9,18C5.9,18,6,18,5.9,18
		c-0.2-0.4-0.3-0.8-0.5-1.1c0,0-0.1-0.1-0.1-0.1c-0.3,0-0.6,0-0.8,0c0,0,0,0,0,0.1C4.9,17.3,5.4,17.7,5.9,18z"/>
	<path d="M2,10.8C2.2,10.2,2.5,9.6,2.7,9c0.1-0.2,0.2-0.3,0.4-0.3c0.8,0,0.6-0.1,0.9,0.6c0.2,0.5,0.4,0.9,0.6,1.4
		c0-0.1,0.1-0.2,0.1-0.2C4.9,10,5.1,9.5,5.3,9c0.1-0.2,0.2-0.2,0.3-0.2c0.2,0,0.4,0,0.6,0c0.2,0,0.3,0.1,0.2,0.3
		C6.1,10,5.6,11,5.2,12c-0.1,0.1-0.2,0.2-0.3,0.2c-0.2,0-0.4,0-0.5,0c-0.2,0-0.3-0.1-0.3-0.2c-0.2-0.5-0.4-1-0.7-1.5
		c0-0.1-0.1-0.1-0.1-0.2c-0.3,0.6-0.5,1.1-0.8,1.7c-0.1,0.2-0.2,0.3-0.5,0.3c-0.8,0-0.6,0.1-0.9-0.6c-0.3-0.8-0.7-1.6-1-2.4
		C0.1,8.8,0.1,8.7,0.4,8.7c0.2,0,0.4,0,0.6,0c0.2,0,0.3,0.1,0.3,0.2C1.5,9.6,1.8,10.1,2,10.8z"/>
	<path d="M9.1,10.8c0.1-0.2,0.2-0.4,0.2-0.5C9.5,9.8,9.7,9.4,9.9,9C10,8.8,10,8.7,10.2,8.7c0.9,0,0.7-0.1,1,0.6
		c0.2,0.5,0.4,0.9,0.6,1.4c0.1-0.3,0.2-0.6,0.3-0.9c0.1-0.3,0.2-0.6,0.4-0.9c0-0.1,0.2-0.2,0.2-0.2c0.2,0,0.5,0,0.7,0
		c0.2,0,0.3,0.1,0.2,0.3c-0.4,1-0.8,1.9-1.3,2.9c-0.1,0.1-0.1,0.2-0.3,0.2c-0.2,0-0.4,0-0.5,0c-0.2,0-0.3-0.1-0.3-0.2
		c-0.2-0.6-0.5-1.1-0.8-1.7c0,0.1-0.1,0.2-0.1,0.2c-0.2,0.5-0.5,1-0.7,1.5c-0.1,0.1-0.2,0.2-0.3,0.2c-0.2,0-0.4,0-0.5,0
		c-0.2,0-0.3-0.1-0.3-0.2C8.1,11,7.7,10,7.3,9.1c-0.1-0.2,0-0.3,0.2-0.3c0.2,0,0.4,0,0.6,0c0.2,0,0.3,0.1,0.3,0.2
		c0.2,0.5,0.4,1,0.6,1.6C9,10.6,9.1,10.7,9.1,10.8z"/>
	<path d="M16.2,10.8c0.2-0.6,0.5-1.1,0.7-1.6c0.1-0.3,0.3-0.4,0.6-0.4c0.6,0,0.5,0,0.7,0.5c0.2,0.5,0.4,1,0.7,1.5
		c0.2-0.4,0.3-0.8,0.4-1.1c0.1-0.2,0.2-0.5,0.3-0.7c0-0.1,0.1-0.2,0.3-0.2c0.2,0,0.5,0,0.7,0c0.2,0,0.3,0.1,0.2,0.3
		c-0.4,1-0.9,1.9-1.3,2.9c-0.1,0.1-0.2,0.2-0.3,0.2c-0.2,0-0.4,0-0.5,0c-0.2,0-0.3-0.1-0.3-0.2c-0.2-0.6-0.5-1.1-0.8-1.7
		c0,0.1-0.1,0.1-0.1,0.2c-0.2,0.5-0.5,1-0.7,1.6c-0.1,0.2-0.2,0.2-0.4,0.2c-0.9,0-0.7,0.1-1-0.7c-0.3-0.8-0.6-1.5-1-2.3
		c-0.1-0.3-0.1-0.4,0.3-0.4c0.2,0,0.4,0,0.5,0c0.2,0,0.3,0.1,0.4,0.3C15.8,9.6,16,10.2,16.2,10.8z"/>
	<path className="st0" d="M13.6,4c-2.1,0-4.3,0-6.5,0c0.2-0.3,0.4-0.6,0.7-0.9c0.4-0.5,0.9-0.9,1.5-1.2C10.2,1.5,11,1.6,11.8,2
		C12.6,2.5,13.2,3.2,13.6,4C13.6,4,13.6,4,13.6,4z"/>
	<path className="st0" d="M14.9,2.8c0.5,0.4,1,0.7,1.5,1.1c0,0,0,0,0,0.1c-0.3,0-0.5,0-0.8,0c0,0-0.1-0.1-0.1-0.1
		C15.2,3.6,15.1,3.2,14.9,2.8C14.9,2.9,14.9,2.9,14.9,2.8z"/>
	<path className="st0" d="M4.4,4c0.5-0.4,1-0.7,1.5-1.1c0,0,0,0,0,0C5.8,3.2,5.6,3.6,5.4,4C5.4,4,5.3,4,5.3,4C5,4,4.7,4,4.4,4
		C4.5,4,4.4,4,4.4,4z"/>
	<path className="st0" d="M7.2,16.8c2.2,0,4.3,0,6.4,0c0,0,0,0,0,0c-0.5,0.9-1.1,1.6-2.1,2.1c-0.8,0.4-1.7,0.3-2.5-0.1
		C8.2,18.4,7.7,17.7,7.2,16.8z"/>
	<path className="st0" d="M14.9,18c0.2-0.4,0.4-0.7,0.6-1.1c0,0,0.1-0.1,0.1-0.1c0.3,0,0.5,0,0.8,0c0,0,0,0,0,0.1
		C15.9,17.3,15.4,17.6,14.9,18C14.9,18,14.9,18,14.9,18z"/>
	<path className="st0" d="M5.9,18c-0.5-0.4-1-0.7-1.5-1.1c0,0,0,0,0-0.1c0.3,0,0.6,0,0.8,0c0,0,0.1,0,0.1,0.1C5.6,17.3,5.8,17.6,5.9,18
		C6,18,5.9,18,5.9,18z"/>
</g>
</svg>
